<?xml version="1.0" encoding="utf-8" standalone="no"?>
<!DOCTYPE svg PUBLIC "-//W3C//DTD SVG 1.1//EN"
  "http://www.w3.org/Graphics/SVG/1.1/DTD/svg11.dtd">
<svg xmlns:xlink="http://www.w3.org/1999/xlink" width="460.8pt" height="345.6pt" viewBox="0 0 460.8 345.6" xmlns="http://www.w3.org/2000/svg" version="1.1">
 <metadata>
  <rdf:RDF xmlns:dc="http://purl.org/dc/elements/1.1/" xmlns:cc="http://creativecommons.org/ns#" xmlns:rdf="http://www.w3.org/1999/02/22-rdf-syntax-ns#">
   <cc:Work>
    <dc:type rdf:resource="http://purl.org/dc/dcmitype/StillImage"/>
    <dc:date>2022-11-13T12:45:54.851155</dc:date>
    <dc:format>image/svg+xml</dc:format>
    <dc:creator>
     <cc:Agent>
      <dc:title>Matplotlib v3.6.2, https://matplotlib.org/</dc:title>
     </cc:Agent>
    </dc:creator>
   </cc:Work>
  </rdf:RDF>
 </metadata>
 <defs>
  <style type="text/css">*{stroke-linejoin: round; stroke-linecap: butt}</style>
 </defs>
 <g id="figure_1">
  <g id="patch_1">
   <path d="M 0 345.6 
L 460.8 345.6 
L 460.8 0 
L 0 0 
z
" style="fill: #ffffff"/>
  </g>
  <g id="axes_1">
   <g id="patch_2">
    <path d="M 57.6 307.584 
L 414.72 307.584 
L 414.72 41.472 
L 57.6 41.472 
z
" style="fill: #ffffff"/>
   </g>
   <g id="PolyCollection_1">
    <path d="M 73.832727 289.552696 
L 73.832727 307.584 
L 83.38139 307.584 
L 92.930053 307.584 
L 102.478717 307.584 
L 112.02738 307.584 
L 121.576043 307.584 
L 131.124706 307.584 
L 140.673369 307.584 
L 150.222032 307.584 
L 159.770695 307.584 
L 169.319358 307.584 
L 178.868021 307.584 
L 188.416684 307.584 
L 197.965348 307.584 
L 207.514011 307.584 
L 217.062674 307.584 
L 226.611337 307.584 
L 236.16 307.584 
L 245.708663 307.584 
L 255.257326 307.584 
L 264.805989 307.584 
L 274.354652 307.584 
L 283.903316 307.584 
L 293.451979 307.584 
L 303.000642 307.584 
L 312.549305 307.584 
L 322.097968 307.584 
L 331.646631 307.584 
L 341.195294 307.584 
L 350.743957 307.584 
L 360.29262 307.584 
L 369.841283 307.584 
L 379.389947 307.584 
L 388.93861 307.584 
L 398.487273 307.584 
L 398.487273 307.584 
L 398.487273 307.584 
L 388.93861 307.584 
L 379.389947 307.584 
L 369.841283 307.584 
L 360.29262 307.584 
L 350.743957 307.584 
L 341.195294 307.584 
L 331.646631 307.584 
L 322.097968 307.584 
L 312.549305 307.584 
L 303.000642 307.584 
L 293.451979 257.497043 
L 283.903316 263.507478 
L 274.354652 281.538783 
L 264.805989 294.561391 
L 255.257326 300.571826 
L 245.708663 299.570087 
L 236.16 298.568348 
L 226.611337 297.566609 
L 217.062674 295.56313 
L 207.514011 295.56313 
L 197.965348 294.561391 
L 188.416684 303.577043 
L 178.868021 301.573565 
L 169.319358 302.575304 
L 159.770695 299.570087 
L 150.222032 299.570087 
L 140.673369 295.56313 
L 131.124706 296.56487 
L 121.576043 296.56487 
L 112.02738 293.559652 
L 102.478717 295.56313 
L 92.930053 299.570087 
L 83.38139 303.577043 
L 73.832727 289.552696 
z
" clip-path="url(#p93fb23f024)" style="fill: #1f77b4"/>
   </g>
   <g id="PolyCollection_2">
    <path d="M 73.832727 199.396174 
L 73.832727 289.552696 
L 83.38139 303.577043 
L 92.930053 299.570087 
L 102.478717 295.56313 
L 112.02738 293.559652 
L 121.576043 296.56487 
L 131.124706 296.56487 
L 140.673369 295.56313 
L 150.222032 299.570087 
L 159.770695 299.570087 
L 169.319358 302.575304 
L 178.868021 301.573565 
L 188.416684 303.577043 
L 197.965348 294.561391 
L 207.514011 295.56313 
L 217.062674 295.56313 
L 226.611337 297.566609 
L 236.16 298.568348 
L 245.708663 299.570087 
L 255.257326 300.571826 
L 264.805989 294.561391 
L 274.354652 281.538783 
L 283.903316 263.507478 
L 293.451979 257.497043 
L 303.000642 307.584 
L 312.549305 307.584 
L 322.097968 307.584 
L 331.646631 307.584 
L 341.195294 307.584 
L 350.743957 307.584 
L 360.29262 307.584 
L 369.841283 307.584 
L 379.389947 307.584 
L 388.93861 307.584 
L 398.487273 307.584 
L 398.487273 307.584 
L 398.487273 307.584 
L 388.93861 307.584 
L 379.389947 307.584 
L 369.841283 307.584 
L 360.29262 307.584 
L 350.743957 307.584 
L 341.195294 307.584 
L 331.646631 307.584 
L 322.097968 307.584 
L 312.549305 307.584 
L 303.000642 307.584 
L 293.451979 257.497043 
L 283.903316 263.507478 
L 274.354652 281.538783 
L 264.805989 277.531826 
L 255.257326 277.531826 
L 245.708663 266.512696 
L 236.16 281.538783 
L 226.611337 283.542261 
L 217.062674 278.533565 
L 207.514011 283.542261 
L 197.965348 270.519652 
L 188.416684 271.521391 
L 178.868021 284.544 
L 169.319358 287.549217 
L 159.770695 271.521391 
L 150.222032 280.537043 
L 140.673369 284.544 
L 131.124706 284.544 
L 121.576043 289.552696 
L 112.02738 290.554435 
L 102.478717 290.554435 
L 92.930053 297.566609 
L 83.38139 301.573565 
L 73.832727 199.396174 
z
" clip-path="url(#p93fb23f024)" style="fill: #ff7f0e"/>
   </g>
   <g id="PolyCollection_3">
    <path d="M 73.832727 190.380522 
L 73.832727 199.396174 
L 83.38139 301.573565 
L 92.930053 297.566609 
L 102.478717 290.554435 
L 112.02738 290.554435 
L 121.576043 289.552696 
L 131.124706 284.544 
L 140.673369 284.544 
L 150.222032 280.537043 
L 159.770695 271.521391 
L 169.319358 287.549217 
L 178.868021 284.544 
L 188.416684 271.521391 
L 197.965348 270.519652 
L 207.514011 283.542261 
L 217.062674 278.533565 
L 226.611337 283.542261 
L 236.16 281.538783 
L 245.708663 266.512696 
L 255.257326 277.531826 
L 264.805989 277.531826 
L 274.354652 281.538783 
L 283.903316 263.507478 
L 293.451979 257.497043 
L 303.000642 307.584 
L 312.549305 307.584 
L 322.097968 307.584 
L 331.646631 307.584 
L 341.195294 307.584 
L 350.743957 307.584 
L 360.29262 307.584 
L 369.841283 307.584 
L 379.389947 307.584 
L 388.93861 307.584 
L 398.487273 307.584 
L 398.487273 307.584 
L 398.487273 307.584 
L 388.93861 307.584 
L 379.389947 307.584 
L 369.841283 307.584 
L 360.29262 307.584 
L 350.743957 307.584 
L 341.195294 307.584 
L 331.646631 307.584 
L 322.097968 307.584 
L 312.549305 307.584 
L 303.000642 307.584 
L 293.451979 231.451826 
L 283.903316 239.465739 
L 274.354652 267.514435 
L 264.805989 260.502261 
L 255.257326 265.510957 
L 245.708663 256.495304 
L 236.16 272.52313 
L 226.611337 274.526609 
L 217.062674 270.519652 
L 207.514011 272.52313 
L 197.965348 256.495304 
L 188.416684 259.500522 
L 178.868021 273.52487 
L 169.319358 272.52313 
L 159.770695 260.502261 
L 150.222032 266.512696 
L 140.673369 266.512696 
L 131.124706 271.521391 
L 121.576043 274.526609 
L 112.02738 276.530087 
L 102.478717 275.528348 
L 92.930053 284.544 
L 83.38139 293.559652 
L 73.832727 190.380522 
z
" clip-path="url(#p93fb23f024)" style="fill: #2ca02c"/>
   </g>
   <g id="PolyCollection_4">
    <path d="M 73.832727 171.347478 
L 73.832727 190.380522 
L 83.38139 293.559652 
L 92.930053 284.544 
L 102.478717 275.528348 
L 112.02738 276.530087 
L 121.576043 274.526609 
L 131.124706 271.521391 
L 140.673369 266.512696 
L 150.222032 266.512696 
L 159.770695 260.502261 
L 169.319358 272.52313 
L 178.868021 273.52487 
L 188.416684 259.500522 
L 197.965348 256.495304 
L 207.514011 272.52313 
L 217.062674 270.519652 
L 226.611337 274.526609 
L 236.16 272.52313 
L 245.708663 256.495304 
L 255.257326 265.510957 
L 264.805989 260.502261 
L 274.354652 267.514435 
L 283.903316 239.465739 
L 293.451979 231.451826 
L 303.000642 307.584 
L 312.549305 307.584 
L 322.097968 307.584 
L 331.646631 307.584 
L 341.195294 307.584 
L 350.743957 307.584 
L 360.29262 307.584 
L 369.841283 307.584 
L 379.389947 307.584 
L 388.93861 307.584 
L 398.487273 307.584 
L 398.487273 307.584 
L 398.487273 307.584 
L 388.93861 307.584 
L 379.389947 307.584 
L 369.841283 307.584 
L 360.29262 307.584 
L 350.743957 307.584 
L 341.195294 307.584 
L 331.646631 307.584 
L 322.097968 307.584 
L 312.549305 307.584 
L 303.000642 307.584 
L 293.451979 231.451826 
L 283.903316 239.465739 
L 274.354652 255.493565 
L 264.805989 243.472696 
L 255.257326 250.48487 
L 245.708663 244.474435 
L 236.16 258.498783 
L 226.611337 264.509217 
L 217.062674 258.498783 
L 207.514011 264.509217 
L 197.965348 253.490087 
L 188.416684 247.479652 
L 178.868021 260.502261 
L 169.319358 259.500522 
L 159.770695 250.48487 
L 150.222032 253.490087 
L 140.673369 255.493565 
L 131.124706 260.502261 
L 121.576043 264.509217 
L 112.02738 265.510957 
L 102.478717 265.510957 
L 92.930053 270.519652 
L 83.38139 284.544 
L 73.832727 171.347478 
z
" clip-path="url(#p93fb23f024)" style="fill: #d62728"/>
   </g>
   <g id="PolyCollection_5">
    <path d="M 73.832727 158.32487 
L 73.832727 171.347478 
L 83.38139 284.544 
L 92.930053 270.519652 
L 102.478717 265.510957 
L 112.02738 265.510957 
L 121.576043 264.509217 
L 131.124706 260.502261 
L 140.673369 255.493565 
L 150.222032 253.490087 
L 159.770695 250.48487 
L 169.319358 259.500522 
L 178.868021 260.502261 
L 188.416684 247.479652 
L 197.965348 253.490087 
L 207.514011 264.509217 
L 217.062674 258.498783 
L 226.611337 264.509217 
L 236.16 258.498783 
L 245.708663 244.474435 
L 255.257326 250.48487 
L 264.805989 243.472696 
L 274.354652 255.493565 
L 283.903316 239.465739 
L 293.451979 231.451826 
L 303.000642 307.584 
L 312.549305 307.584 
L 322.097968 307.584 
L 331.646631 307.584 
L 341.195294 307.584 
L 350.743957 307.584 
L 360.29262 307.584 
L 369.841283 307.584 
L 379.389947 307.584 
L 388.93861 307.584 
L 398.487273 307.584 
L 398.487273 307.584 
L 398.487273 307.584 
L 388.93861 307.584 
L 379.389947 307.584 
L 369.841283 307.584 
L 360.29262 307.584 
L 350.743957 307.584 
L 341.195294 307.584 
L 331.646631 307.584 
L 322.097968 307.584 
L 312.549305 307.584 
L 303.000642 307.584 
L 293.451979 231.451826 
L 283.903316 239.465739 
L 274.354652 236.460522 
L 264.805989 222.436174 
L 255.257326 234.457043 
L 245.708663 236.460522 
L 236.16 236.460522 
L 226.611337 248.481391 
L 217.062674 244.474435 
L 207.514011 242.470957 
L 197.965348 230.450087 
L 188.416684 227.44487 
L 178.868021 242.470957 
L 169.319358 236.460522 
L 159.770695 222.436174 
L 150.222032 227.44487 
L 140.673369 219.430957 
L 131.124706 225.441391 
L 121.576043 227.44487 
L 112.02738 226.44313 
L 102.478717 224.439652 
L 92.930053 213.420522 
L 83.38139 206.408348 
L 73.832727 158.32487 
z
" clip-path="url(#p93fb23f024)" style="fill: #9467bd"/>
   </g>
   <g id="PolyCollection_6">
    <path d="M 73.832727 102.227478 
L 73.832727 158.32487 
L 83.38139 206.408348 
L 92.930053 213.420522 
L 102.478717 224.439652 
L 112.02738 226.44313 
L 121.576043 227.44487 
L 131.124706 225.441391 
L 140.673369 219.430957 
L 150.222032 227.44487 
L 159.770695 222.436174 
L 169.319358 236.460522 
L 178.868021 242.470957 
L 188.416684 227.44487 
L 197.965348 230.450087 
L 207.514011 242.470957 
L 217.062674 244.474435 
L 226.611337 248.481391 
L 236.16 236.460522 
L 245.708663 236.460522 
L 255.257326 234.457043 
L 264.805989 222.436174 
L 274.354652 236.460522 
L 283.903316 239.465739 
L 293.451979 231.451826 
L 303.000642 307.584 
L 312.549305 307.584 
L 322.097968 307.584 
L 331.646631 307.584 
L 341.195294 307.584 
L 350.743957 307.584 
L 360.29262 307.584 
L 369.841283 307.584 
L 379.389947 307.584 
L 388.93861 307.584 
L 398.487273 307.584 
L 398.487273 307.584 
L 398.487273 307.584 
L 388.93861 307.584 
L 379.389947 307.584 
L 369.841283 307.584 
L 360.29262 307.584 
L 350.743957 307.584 
L 341.195294 307.584 
L 331.646631 307.584 
L 322.097968 307.584 
L 312.549305 307.584 
L 303.000642 307.584 
L 293.451979 231.451826 
L 283.903316 239.465739 
L 274.354652 236.460522 
L 264.805989 182.366609 
L 255.257326 190.380522 
L 245.708663 184.370087 
L 236.16 186.373565 
L 226.611337 198.394435 
L 217.062674 182.366609 
L 207.514011 214.422261 
L 197.965348 201.399652 
L 188.416684 193.385739 
L 178.868021 207.410087 
L 169.319358 208.411826 
L 159.770695 192.384 
L 150.222032 187.375304 
L 140.673369 175.354435 
L 131.124706 183.368348 
L 121.576043 187.375304 
L 112.02738 192.384 
L 102.478717 199.396174 
L 92.930053 176.356174 
L 83.38139 129.274435 
L 73.832727 102.227478 
z
" clip-path="url(#p93fb23f024)" style="fill: #8c564b"/>
   </g>
   <g id="PolyCollection_7">
    <path d="M 73.832727 87.201391 
L 73.832727 102.227478 
L 83.38139 129.274435 
L 92.930053 176.356174 
L 102.478717 199.396174 
L 112.02738 192.384 
L 121.576043 187.375304 
L 131.124706 183.368348 
L 140.673369 175.354435 
L 150.222032 187.375304 
L 159.770695 192.384 
L 169.319358 208.411826 
L 178.868021 207.410087 
L 188.416684 193.385739 
L 197.965348 201.399652 
L 207.514011 214.422261 
L 217.062674 182.366609 
L 226.611337 198.394435 
L 236.16 186.373565 
L 245.708663 184.370087 
L 255.257326 190.380522 
L 264.805989 182.366609 
L 274.354652 236.460522 
L 283.903316 239.465739 
L 293.451979 231.451826 
L 303.000642 307.584 
L 312.549305 307.584 
L 322.097968 307.584 
L 331.646631 307.584 
L 341.195294 307.584 
L 350.743957 307.584 
L 360.29262 307.584 
L 369.841283 307.584 
L 379.389947 307.584 
L 388.93861 307.584 
L 398.487273 307.584 
L 398.487273 307.584 
L 398.487273 307.584 
L 388.93861 307.584 
L 379.389947 307.584 
L 369.841283 307.584 
L 360.29262 307.584 
L 350.743957 307.584 
L 341.195294 307.584 
L 331.646631 258.498783 
L 322.097968 237.462261 
L 312.549305 231.451826 
L 303.000642 249.48313 
L 293.451979 193.385739 
L 283.903316 216.425739 
L 274.354652 223.437913 
L 264.805989 177.357913 
L 255.257326 178.359652 
L 245.708663 171.347478 
L 236.16 171.347478 
L 226.611337 185.371826 
L 217.062674 176.356174 
L 207.514011 183.368348 
L 197.965348 173.350957 
L 188.416684 172.349217 
L 178.868021 173.350957 
L 169.319358 174.352696 
L 159.770695 172.349217 
L 150.222032 177.357913 
L 140.673369 168.342261 
L 131.124706 173.350957 
L 121.576043 180.36313 
L 112.02738 185.371826 
L 102.478717 191.382261 
L 92.930053 167.340522 
L 83.38139 125.267478 
L 73.832727 87.201391 
z
" clip-path="url(#p93fb23f024)" style="fill: #e377c2"/>
   </g>
   <g id="PolyCollection_8">
    <path d="M 73.832727 86.199652 
L 73.832727 87.201391 
L 83.38139 125.267478 
L 92.930053 167.340522 
L 102.478717 191.382261 
L 112.02738 185.371826 
L 121.576043 180.36313 
L 131.124706 173.350957 
L 140.673369 168.342261 
L 150.222032 177.357913 
L 159.770695 172.349217 
L 169.319358 174.352696 
L 178.868021 173.350957 
L 188.416684 172.349217 
L 197.965348 173.350957 
L 207.514011 183.368348 
L 217.062674 176.356174 
L 226.611337 185.371826 
L 236.16 171.347478 
L 245.708663 171.347478 
L 255.257326 178.359652 
L 264.805989 177.357913 
L 274.354652 223.437913 
L 283.903316 216.425739 
L 293.451979 193.385739 
L 303.000642 249.48313 
L 312.549305 231.451826 
L 322.097968 237.462261 
L 331.646631 258.498783 
L 341.195294 307.584 
L 350.743957 307.584 
L 360.29262 307.584 
L 369.841283 307.584 
L 379.389947 307.584 
L 388.93861 307.584 
L 398.487273 307.584 
L 398.487273 307.584 
L 398.487273 307.584 
L 388.93861 307.584 
L 379.389947 307.584 
L 369.841283 307.584 
L 360.29262 307.584 
L 350.743957 307.584 
L 341.195294 307.584 
L 331.646631 258.498783 
L 322.097968 237.462261 
L 312.549305 231.451826 
L 303.000642 249.48313 
L 293.451979 193.385739 
L 283.903316 189.378783 
L 274.354652 205.406609 
L 264.805989 170.345739 
L 255.257326 172.349217 
L 245.708663 165.337043 
L 236.16 159.326609 
L 226.611337 169.344 
L 217.062674 158.32487 
L 207.514011 170.345739 
L 197.965348 165.337043 
L 188.416684 154.317913 
L 178.868021 158.32487 
L 169.319358 166.338783 
L 159.770695 161.330087 
L 150.222032 165.337043 
L 140.673369 161.330087 
L 131.124706 164.335304 
L 121.576043 170.345739 
L 112.02738 174.352696 
L 102.478717 179.361391 
L 92.930053 155.319652 
L 83.38139 112.24487 
L 73.832727 86.199652 
z
" clip-path="url(#p93fb23f024)" style="fill: #7f7f7f"/>
   </g>
   <g id="PolyCollection_9">
    <path d="M 73.832727 85.197913 
L 73.832727 86.199652 
L 83.38139 112.24487 
L 92.930053 155.319652 
L 102.478717 179.361391 
L 112.02738 174.352696 
L 121.576043 170.345739 
L 131.124706 164.335304 
L 140.673369 161.330087 
L 150.222032 165.337043 
L 159.770695 161.330087 
L 169.319358 166.338783 
L 178.868021 158.32487 
L 188.416684 154.317913 
L 197.965348 165.337043 
L 207.514011 170.345739 
L 217.062674 158.32487 
L 226.611337 169.344 
L 236.16 159.326609 
L 245.708663 165.337043 
L 255.257326 172.349217 
L 264.805989 170.345739 
L 274.354652 205.406609 
L 283.903316 189.378783 
L 293.451979 193.385739 
L 303.000642 249.48313 
L 312.549305 231.451826 
L 322.097968 237.462261 
L 331.646631 258.498783 
L 341.195294 307.584 
L 350.743957 307.584 
L 360.29262 307.584 
L 369.841283 307.584 
L 379.389947 307.584 
L 388.93861 307.584 
L 398.487273 307.584 
L 398.487273 307.584 
L 398.487273 307.584 
L 388.93861 307.584 
L 379.389947 307.584 
L 369.841283 307.584 
L 360.29262 307.584 
L 350.743957 307.584 
L 341.195294 307.584 
L 331.646631 258.498783 
L 322.097968 237.462261 
L 312.549305 231.451826 
L 303.000642 230.450087 
L 293.451979 182.366609 
L 283.903316 173.350957 
L 274.354652 192.384 
L 264.805989 159.326609 
L 255.257326 164.335304 
L 245.708663 160.328348 
L 236.16 153.316174 
L 226.611337 155.319652 
L 217.062674 152.314435 
L 207.514011 161.330087 
L 197.965348 158.32487 
L 188.416684 149.309217 
L 178.868021 147.305739 
L 169.319358 155.319652 
L 159.770695 154.317913 
L 150.222032 160.328348 
L 140.673369 153.316174 
L 131.124706 156.321391 
L 121.576043 159.326609 
L 112.02738 166.338783 
L 102.478717 171.347478 
L 92.930053 153.316174 
L 83.38139 110.241391 
L 73.832727 85.197913 
z
" clip-path="url(#p93fb23f024)" style="fill: #bcbd22"/>
   </g>
   <g id="PolyCollection_10">
    <path d="M 73.832727 84.196174 
L 73.832727 85.197913 
L 83.38139 110.241391 
L 92.930053 153.316174 
L 102.478717 171.347478 
L 112.02738 166.338783 
L 121.576043 159.326609 
L 131.124706 156.321391 
L 140.673369 153.316174 
L 150.222032 160.328348 
L 159.770695 154.317913 
L 169.319358 155.319652 
L 178.868021 147.305739 
L 188.416684 149.309217 
L 197.965348 158.32487 
L 207.514011 161.330087 
L 217.062674 152.314435 
L 226.611337 155.319652 
L 236.16 153.316174 
L 245.708663 160.328348 
L 255.257326 164.335304 
L 264.805989 159.326609 
L 274.354652 192.384 
L 283.903316 173.350957 
L 293.451979 182.366609 
L 303.000642 230.450087 
L 312.549305 231.451826 
L 322.097968 237.462261 
L 331.646631 258.498783 
L 341.195294 307.584 
L 350.743957 307.584 
L 360.29262 307.584 
L 369.841283 307.584 
L 379.389947 307.584 
L 388.93861 307.584 
L 398.487273 307.584 
L 398.487273 307.584 
L 398.487273 307.584 
L 388.93861 307.584 
L 379.389947 307.584 
L 369.841283 307.584 
L 360.29262 307.584 
L 350.743957 307.584 
L 341.195294 307.584 
L 331.646631 258.498783 
L 322.097968 198.394435 
L 312.549305 202.401391 
L 303.000642 200.397913 
L 293.451979 167.340522 
L 283.903316 160.328348 
L 274.354652 176.356174 
L 264.805989 149.309217 
L 255.257326 154.317913 
L 245.708663 149.309217 
L 236.16 144.300522 
L 226.611337 146.304 
L 217.062674 149.309217 
L 207.514011 157.32313 
L 197.965348 149.309217 
L 188.416684 142.297043 
L 178.868021 135.28487 
L 169.319358 143.298783 
L 159.770695 145.302261 
L 150.222032 152.314435 
L 140.673369 142.297043 
L 131.124706 149.309217 
L 121.576043 149.309217 
L 112.02738 154.317913 
L 102.478717 161.330087 
L 92.930053 147.305739 
L 83.38139 108.237913 
L 73.832727 84.196174 
z
" clip-path="url(#p93fb23f024)" style="fill: #17becf"/>
   </g>
   <g id="PolyCollection_11">
    <path d="M 73.832727 77.184 
L 73.832727 84.196174 
L 83.38139 108.237913 
L 92.930053 147.305739 
L 102.478717 161.330087 
L 112.02738 154.317913 
L 121.576043 149.309217 
L 131.124706 149.309217 
L 140.673369 142.297043 
L 150.222032 152.314435 
L 159.770695 145.302261 
L 169.319358 143.298783 
L 178.868021 135.28487 
L 188.416684 142.297043 
L 197.965348 149.309217 
L 207.514011 157.32313 
L 217.062674 149.309217 
L 226.611337 146.304 
L 236.16 144.300522 
L 245.708663 149.309217 
L 255.257326 154.317913 
L 264.805989 149.309217 
L 274.354652 176.356174 
L 283.903316 160.328348 
L 293.451979 167.340522 
L 303.000642 200.397913 
L 312.549305 202.401391 
L 322.097968 198.394435 
L 331.646631 258.498783 
L 341.195294 307.584 
L 350.743957 307.584 
L 360.29262 307.584 
L 369.841283 307.584 
L 379.389947 307.584 
L 388.93861 307.584 
L 398.487273 307.584 
L 398.487273 307.584 
L 398.487273 307.584 
L 388.93861 307.584 
L 379.389947 307.584 
L 369.841283 307.584 
L 360.29262 307.584 
L 350.743957 307.584 
L 341.195294 307.584 
L 331.646631 258.498783 
L 322.097968 198.394435 
L 312.549305 202.401391 
L 303.000642 200.397913 
L 293.451979 167.340522 
L 283.903316 160.328348 
L 274.354652 176.356174 
L 264.805989 143.298783 
L 255.257326 150.310957 
L 245.708663 139.291826 
L 236.16 129.274435 
L 226.611337 128.272696 
L 217.062674 134.28313 
L 207.514011 142.297043 
L 197.965348 134.28313 
L 188.416684 127.270957 
L 178.868021 128.272696 
L 169.319358 127.270957 
L 159.770695 129.274435 
L 150.222032 138.290087 
L 140.673369 134.28313 
L 131.124706 133.281391 
L 121.576043 133.281391 
L 112.02738 138.290087 
L 102.478717 149.309217 
L 92.930053 140.293565 
L 83.38139 103.229217 
L 73.832727 77.184 
z
" clip-path="url(#p93fb23f024)" style="fill: #1f77b4"/>
   </g>
   <g id="PolyCollection_12">
    <path d="M 73.832727 69.170087 
L 73.832727 77.184 
L 83.38139 103.229217 
L 92.930053 140.293565 
L 102.478717 149.309217 
L 112.02738 138.290087 
L 121.576043 133.281391 
L 131.124706 133.281391 
L 140.673369 134.28313 
L 150.222032 138.290087 
L 159.770695 129.274435 
L 169.319358 127.270957 
L 178.868021 128.272696 
L 188.416684 127.270957 
L 197.965348 134.28313 
L 207.514011 142.297043 
L 217.062674 134.28313 
L 226.611337 128.272696 
L 236.16 129.274435 
L 245.708663 139.291826 
L 255.257326 150.310957 
L 264.805989 143.298783 
L 274.354652 176.356174 
L 283.903316 160.328348 
L 293.451979 167.340522 
L 303.000642 200.397913 
L 312.549305 202.401391 
L 322.097968 198.394435 
L 331.646631 258.498783 
L 341.195294 307.584 
L 350.743957 307.584 
L 360.29262 307.584 
L 369.841283 307.584 
L 379.389947 307.584 
L 388.93861 307.584 
L 398.487273 307.584 
L 398.487273 307.584 
L 398.487273 307.584 
L 388.93861 307.584 
L 379.389947 307.584 
L 369.841283 307.584 
L 360.29262 307.584 
L 350.743957 307.584 
L 341.195294 231.451826 
L 331.646631 201.399652 
L 322.097968 164.335304 
L 312.549305 157.32313 
L 303.000642 175.354435 
L 293.451979 150.310957 
L 283.903316 145.302261 
L 274.354652 167.340522 
L 264.805989 132.279652 
L 255.257326 134.28313 
L 245.708663 122.262261 
L 236.16 118.255304 
L 226.611337 118.255304 
L 217.062674 122.262261 
L 207.514011 128.272696 
L 197.965348 118.255304 
L 188.416684 122.262261 
L 178.868021 120.258783 
L 169.319358 116.251826 
L 159.770695 112.24487 
L 150.222032 128.272696 
L 140.673369 123.264 
L 131.124706 118.255304 
L 121.576043 120.258783 
L 112.02738 122.262261 
L 102.478717 132.279652 
L 92.930053 126.269217 
L 83.38139 99.222261 
L 73.832727 69.170087 
z
" clip-path="url(#p93fb23f024)" style="fill: #ff7f0e"/>
   </g>
   <g id="PolyCollection_13">
    <path d="M 73.832727 68.168348 
L 73.832727 69.170087 
L 83.38139 99.222261 
L 92.930053 126.269217 
L 102.478717 132.279652 
L 112.02738 122.262261 
L 121.576043 120.258783 
L 131.124706 118.255304 
L 140.673369 123.264 
L 150.222032 128.272696 
L 159.770695 112.24487 
L 169.319358 116.251826 
L 178.868021 120.258783 
L 188.416684 122.262261 
L 197.965348 118.255304 
L 207.514011 128.272696 
L 217.062674 122.262261 
L 226.611337 118.255304 
L 236.16 118.255304 
L 245.708663 122.262261 
L 255.257326 134.28313 
L 264.805989 132.279652 
L 274.354652 167.340522 
L 283.903316 145.302261 
L 293.451979 150.310957 
L 303.000642 175.354435 
L 312.549305 157.32313 
L 322.097968 164.335304 
L 331.646631 201.399652 
L 341.195294 231.451826 
L 350.743957 307.584 
L 360.29262 307.584 
L 369.841283 307.584 
L 379.389947 307.584 
L 388.93861 307.584 
L 398.487273 307.584 
L 398.487273 266.512696 
L 398.487273 266.512696 
L 388.93861 267.514435 
L 379.389947 292.557913 
L 369.841283 275.528348 
L 360.29262 251.486609 
L 350.743957 223.437913 
L 341.195294 166.338783 
L 331.646631 121.260522 
L 322.097968 116.251826 
L 312.549305 129.274435 
L 303.000642 142.297043 
L 293.451979 125.267478 
L 283.903316 126.269217 
L 274.354652 148.307478 
L 264.805989 121.260522 
L 255.257326 122.262261 
L 245.708663 112.24487 
L 236.16 108.237913 
L 226.611337 111.24313 
L 217.062674 112.24487 
L 207.514011 119.257043 
L 197.965348 107.236174 
L 188.416684 110.241391 
L 178.868021 108.237913 
L 169.319358 106.234435 
L 159.770695 100.224 
L 150.222032 119.257043 
L 140.673369 112.24487 
L 131.124706 103.229217 
L 121.576043 111.24313 
L 112.02738 116.251826 
L 102.478717 121.260522 
L 92.930053 115.250087 
L 83.38139 89.20487 
L 73.832727 68.168348 
z
" clip-path="url(#p93fb23f024)" style="fill: #2ca02c"/>
   </g>
   <g id="PolyCollection_14">
    <path d="M 73.832727 66.16487 
L 73.832727 68.168348 
L 83.38139 89.20487 
L 92.930053 115.250087 
L 102.478717 121.260522 
L 112.02738 116.251826 
L 121.576043 111.24313 
L 131.124706 103.229217 
L 140.673369 112.24487 
L 150.222032 119.257043 
L 159.770695 100.224 
L 169.319358 106.234435 
L 178.868021 108.237913 
L 188.416684 110.241391 
L 197.965348 107.236174 
L 207.514011 119.257043 
L 217.062674 112.24487 
L 226.611337 111.24313 
L 236.16 108.237913 
L 245.708663 112.24487 
L 255.257326 122.262261 
L 264.805989 121.260522 
L 274.354652 148.307478 
L 283.903316 126.269217 
L 293.451979 125.267478 
L 303.000642 142.297043 
L 312.549305 129.274435 
L 322.097968 116.251826 
L 331.646631 121.260522 
L 341.195294 166.338783 
L 350.743957 223.437913 
L 360.29262 251.486609 
L 369.841283 275.528348 
L 379.389947 292.557913 
L 388.93861 267.514435 
L 398.487273 266.512696 
L 398.487273 222.436174 
L 398.487273 222.436174 
L 388.93861 210.415304 
L 379.389947 250.48487 
L 369.841283 233.455304 
L 360.29262 190.380522 
L 350.743957 101.225739 
L 341.195294 57.149217 
L 331.646631 56.147478 
L 322.097968 58.150957 
L 312.549305 91.208348 
L 303.000642 101.225739 
L 293.451979 104.230957 
L 283.903316 106.234435 
L 274.354652 126.269217 
L 264.805989 107.236174 
L 255.257326 110.241391 
L 245.708663 110.241391 
L 236.16 103.229217 
L 226.611337 101.225739 
L 217.062674 100.224 
L 207.514011 103.229217 
L 197.965348 98.220522 
L 188.416684 101.225739 
L 178.868021 91.208348 
L 169.319358 92.210087 
L 159.770695 87.201391 
L 150.222032 108.237913 
L 140.673369 101.225739 
L 131.124706 90.206609 
L 121.576043 101.225739 
L 112.02738 104.230957 
L 102.478717 104.230957 
L 92.930053 103.229217 
L 83.38139 86.199652 
L 73.832727 66.16487 
z
" clip-path="url(#p93fb23f024)" style="fill: #d62728"/>
   </g>
   <g id="PolyCollection_15">
    <path d="M 73.832727 65.16313 
L 73.832727 66.16487 
L 83.38139 86.199652 
L 92.930053 103.229217 
L 102.478717 104.230957 
L 112.02738 104.230957 
L 121.576043 101.225739 
L 131.124706 90.206609 
L 140.673369 101.225739 
L 150.222032 108.237913 
L 159.770695 87.201391 
L 169.319358 92.210087 
L 178.868021 91.208348 
L 188.416684 101.225739 
L 197.965348 98.220522 
L 207.514011 103.229217 
L 217.062674 100.224 
L 226.611337 101.225739 
L 236.16 103.229217 
L 245.708663 110.241391 
L 255.257326 110.241391 
L 264.805989 107.236174 
L 274.354652 126.269217 
L 283.903316 106.234435 
L 293.451979 104.230957 
L 303.000642 101.225739 
L 312.549305 91.208348 
L 322.097968 58.150957 
L 331.646631 56.147478 
L 341.195294 57.149217 
L 350.743957 101.225739 
L 360.29262 190.380522 
L 369.841283 233.455304 
L 379.389947 250.48487 
L 388.93861 210.415304 
L 398.487273 222.436174 
L 398.487273 222.436174 
L 398.487273 222.436174 
L 388.93861 210.415304 
L 379.389947 250.48487 
L 369.841283 233.455304 
L 360.29262 190.380522 
L 350.743957 101.225739 
L 341.195294 57.149217 
L 331.646631 56.147478 
L 322.097968 58.150957 
L 312.549305 91.208348 
L 303.000642 101.225739 
L 293.451979 90.206609 
L 283.903316 92.210087 
L 274.354652 109.239652 
L 264.805989 97.218783 
L 255.257326 99.222261 
L 245.708663 97.218783 
L 236.16 95.215304 
L 226.611337 89.20487 
L 217.062674 87.201391 
L 207.514011 93.211826 
L 197.965348 88.20313 
L 188.416684 87.201391 
L 178.868021 83.194435 
L 169.319358 83.194435 
L 159.770695 83.194435 
L 150.222032 97.218783 
L 140.673369 93.211826 
L 131.124706 80.189217 
L 121.576043 95.215304 
L 112.02738 94.213565 
L 102.478717 94.213565 
L 92.930053 90.206609 
L 83.38139 74.178783 
L 73.832727 65.16313 
z
" clip-path="url(#p93fb23f024)" style="fill: #9467bd"/>
   </g>
   <g id="PolyCollection_16">
    <path d="M 73.832727 60.154435 
L 73.832727 65.16313 
L 83.38139 74.178783 
L 92.930053 90.206609 
L 102.478717 94.213565 
L 112.02738 94.213565 
L 121.576043 95.215304 
L 131.124706 80.189217 
L 140.673369 93.211826 
L 150.222032 97.218783 
L 159.770695 83.194435 
L 169.319358 83.194435 
L 178.868021 83.194435 
L 188.416684 87.201391 
L 197.965348 88.20313 
L 207.514011 93.211826 
L 217.062674 87.201391 
L 226.611337 89.20487 
L 236.16 95.215304 
L 245.708663 97.218783 
L 255.257326 99.222261 
L 264.805989 97.218783 
L 274.354652 109.239652 
L 283.903316 92.210087 
L 293.451979 90.206609 
L 303.000642 101.225739 
L 312.549305 91.208348 
L 322.097968 58.150957 
L 331.646631 56.147478 
L 341.195294 57.149217 
L 350.743957 101.225739 
L 360.29262 190.380522 
L 369.841283 233.455304 
L 379.389947 250.48487 
L 388.93861 210.415304 
L 398.487273 222.436174 
L 398.487273 222.436174 
L 398.487273 222.436174 
L 388.93861 210.415304 
L 379.389947 250.48487 
L 369.841283 233.455304 
L 360.29262 190.380522 
L 350.743957 101.225739 
L 341.195294 57.149217 
L 331.646631 56.147478 
L 322.097968 58.150957 
L 312.549305 91.208348 
L 303.000642 82.192696 
L 293.451979 76.182261 
L 283.903316 76.182261 
L 274.354652 100.224 
L 264.805989 90.206609 
L 255.257326 88.20313 
L 245.708663 86.199652 
L 236.16 85.197913 
L 226.611337 82.192696 
L 217.062674 77.184 
L 207.514011 84.196174 
L 197.965348 77.184 
L 188.416684 78.185739 
L 178.868021 74.178783 
L 169.319358 72.175304 
L 159.770695 73.177043 
L 150.222032 84.196174 
L 140.673369 78.185739 
L 131.124706 77.184 
L 121.576043 84.196174 
L 112.02738 85.197913 
L 102.478717 80.189217 
L 92.930053 80.189217 
L 83.38139 73.177043 
L 73.832727 60.154435 
z
" clip-path="url(#p93fb23f024)" style="fill: #8c564b"/>
   </g>
   <g id="PolyCollection_17">
    <path d="M 73.832727 59.152696 
L 73.832727 60.154435 
L 83.38139 73.177043 
L 92.930053 80.189217 
L 102.478717 80.189217 
L 112.02738 85.197913 
L 121.576043 84.196174 
L 131.124706 77.184 
L 140.673369 78.185739 
L 150.222032 84.196174 
L 159.770695 73.177043 
L 169.319358 72.175304 
L 178.868021 74.178783 
L 188.416684 78.185739 
L 197.965348 77.184 
L 207.514011 84.196174 
L 217.062674 77.184 
L 226.611337 82.192696 
L 236.16 85.197913 
L 245.708663 86.199652 
L 255.257326 88.20313 
L 264.805989 90.206609 
L 274.354652 100.224 
L 283.903316 76.182261 
L 293.451979 76.182261 
L 303.000642 82.192696 
L 312.549305 91.208348 
L 322.097968 58.150957 
L 331.646631 56.147478 
L 341.195294 57.149217 
L 350.743957 101.225739 
L 360.29262 190.380522 
L 369.841283 233.455304 
L 379.389947 250.48487 
L 388.93861 210.415304 
L 398.487273 222.436174 
L 398.487273 222.436174 
L 398.487273 222.436174 
L 388.93861 210.415304 
L 379.389947 250.48487 
L 369.841283 233.455304 
L 360.29262 190.380522 
L 350.743957 101.225739 
L 341.195294 57.149217 
L 331.646631 56.147478 
L 322.097968 58.150957 
L 312.549305 57.149217 
L 303.000642 57.149217 
L 293.451979 57.149217 
L 283.903316 59.152696 
L 274.354652 93.211826 
L 264.805989 81.190957 
L 255.257326 80.189217 
L 245.708663 74.178783 
L 236.16 70.171826 
L 226.611337 70.171826 
L 217.062674 63.159652 
L 207.514011 70.171826 
L 197.965348 65.16313 
L 188.416684 66.16487 
L 178.868021 66.16487 
L 169.319358 67.166609 
L 159.770695 63.159652 
L 150.222032 67.166609 
L 140.673369 65.16313 
L 131.124706 63.159652 
L 121.576043 70.171826 
L 112.02738 70.171826 
L 102.478717 68.168348 
L 92.930053 70.171826 
L 83.38139 62.157913 
L 73.832727 59.152696 
z
" clip-path="url(#p93fb23f024)" style="fill: #e377c2"/>
   </g>
   <g id="PolyCollection_18">
    <path d="M 73.832727 57.149217 
L 73.832727 59.152696 
L 83.38139 62.157913 
L 92.930053 70.171826 
L 102.478717 68.168348 
L 112.02738 70.171826 
L 121.576043 70.171826 
L 131.124706 63.159652 
L 140.673369 65.16313 
L 150.222032 67.166609 
L 159.770695 63.159652 
L 169.319358 67.166609 
L 178.868021 66.16487 
L 188.416684 66.16487 
L 197.965348 65.16313 
L 207.514011 70.171826 
L 217.062674 63.159652 
L 226.611337 70.171826 
L 236.16 70.171826 
L 245.708663 74.178783 
L 255.257326 80.189217 
L 264.805989 81.190957 
L 274.354652 93.211826 
L 283.903316 59.152696 
L 293.451979 57.149217 
L 303.000642 57.149217 
L 312.549305 57.149217 
L 322.097968 58.150957 
L 331.646631 56.147478 
L 341.195294 57.149217 
L 350.743957 101.225739 
L 360.29262 190.380522 
L 369.841283 233.455304 
L 379.389947 250.48487 
L 388.93861 210.415304 
L 398.487273 222.436174 
L 398.487273 222.436174 
L 398.487273 222.436174 
L 388.93861 210.415304 
L 379.389947 250.48487 
L 369.841283 233.455304 
L 360.29262 190.380522 
L 350.743957 101.225739 
L 341.195294 57.149217 
L 331.646631 56.147478 
L 322.097968 58.150957 
L 312.549305 57.149217 
L 303.000642 57.149217 
L 293.451979 57.149217 
L 283.903316 59.152696 
L 274.354652 58.150957 
L 264.805989 59.152696 
L 255.257326 58.150957 
L 245.708663 56.147478 
L 236.16 60.154435 
L 226.611337 57.149217 
L 217.062674 54.144 
L 207.514011 57.149217 
L 197.965348 58.150957 
L 188.416684 58.150957 
L 178.868021 54.144 
L 169.319358 56.147478 
L 159.770695 56.147478 
L 150.222032 55.145739 
L 140.673369 54.144 
L 131.124706 54.144 
L 121.576043 57.149217 
L 112.02738 55.145739 
L 102.478717 54.144 
L 92.930053 56.147478 
L 83.38139 55.145739 
L 73.832727 57.149217 
z
" clip-path="url(#p93fb23f024)" style="fill: #7f7f7f"/>
   </g>
   <g id="PolyCollection_19">
    <path d="M 73.832727 57.149217 
L 73.832727 57.149217 
L 83.38139 55.145739 
L 92.930053 56.147478 
L 102.478717 54.144 
L 112.02738 55.145739 
L 121.576043 57.149217 
L 131.124706 54.144 
L 140.673369 54.144 
L 150.222032 55.145739 
L 159.770695 56.147478 
L 169.319358 56.147478 
L 178.868021 54.144 
L 188.416684 58.150957 
L 197.965348 58.150957 
L 207.514011 57.149217 
L 217.062674 54.144 
L 226.611337 57.149217 
L 236.16 60.154435 
L 245.708663 56.147478 
L 255.257326 58.150957 
L 264.805989 59.152696 
L 274.354652 58.150957 
L 283.903316 59.152696 
L 293.451979 57.149217 
L 303.000642 57.149217 
L 312.549305 57.149217 
L 322.097968 58.150957 
L 331.646631 56.147478 
L 341.195294 57.149217 
L 350.743957 101.225739 
L 360.29262 190.380522 
L 369.841283 233.455304 
L 379.389947 250.48487 
L 388.93861 210.415304 
L 398.487273 222.436174 
L 398.487273 117.253565 
L 398.487273 117.253565 
L 388.93861 111.24313 
L 379.389947 100.224 
L 369.841283 106.234435 
L 360.29262 97.218783 
L 350.743957 70.171826 
L 341.195294 57.149217 
L 331.646631 56.147478 
L 322.097968 58.150957 
L 312.549305 57.149217 
L 303.000642 57.149217 
L 293.451979 57.149217 
L 283.903316 59.152696 
L 274.354652 58.150957 
L 264.805989 59.152696 
L 255.257326 58.150957 
L 245.708663 56.147478 
L 236.16 60.154435 
L 226.611337 57.149217 
L 217.062674 54.144 
L 207.514011 57.149217 
L 197.965348 58.150957 
L 188.416684 58.150957 
L 178.868021 54.144 
L 169.319358 56.147478 
L 159.770695 56.147478 
L 150.222032 55.145739 
L 140.673369 54.144 
L 131.124706 54.144 
L 121.576043 57.149217 
L 112.02738 55.145739 
L 102.478717 54.144 
L 92.930053 56.147478 
L 83.38139 55.145739 
L 73.832727 57.149217 
z
" clip-path="url(#p93fb23f024)" style="fill: #bcbd22"/>
   </g>
   <g id="PolyCollection_20">
    <path d="M 73.832727 57.149217 
L 73.832727 57.149217 
L 83.38139 55.145739 
L 92.930053 56.147478 
L 102.478717 54.144 
L 112.02738 55.145739 
L 121.576043 57.149217 
L 131.124706 54.144 
L 140.673369 54.144 
L 150.222032 55.145739 
L 159.770695 56.147478 
L 169.319358 56.147478 
L 178.868021 54.144 
L 188.416684 58.150957 
L 197.965348 58.150957 
L 207.514011 57.149217 
L 217.062674 54.144 
L 226.611337 57.149217 
L 236.16 60.154435 
L 245.708663 56.147478 
L 255.257326 58.150957 
L 264.805989 59.152696 
L 274.354652 58.150957 
L 283.903316 59.152696 
L 293.451979 57.149217 
L 303.000642 57.149217 
L 312.549305 57.149217 
L 322.097968 58.150957 
L 331.646631 56.147478 
L 341.195294 57.149217 
L 350.743957 70.171826 
L 360.29262 97.218783 
L 369.841283 106.234435 
L 379.389947 100.224 
L 388.93861 111.24313 
L 398.487273 117.253565 
L 398.487273 57.149217 
L 398.487273 57.149217 
L 388.93861 57.149217 
L 379.389947 57.149217 
L 369.841283 57.149217 
L 360.29262 57.149217 
L 350.743957 57.149217 
L 341.195294 57.149217 
L 331.646631 56.147478 
L 322.097968 58.150957 
L 312.549305 57.149217 
L 303.000642 57.149217 
L 293.451979 57.149217 
L 283.903316 59.152696 
L 274.354652 58.150957 
L 264.805989 59.152696 
L 255.257326 58.150957 
L 245.708663 56.147478 
L 236.16 60.154435 
L 226.611337 57.149217 
L 217.062674 54.144 
L 207.514011 57.149217 
L 197.965348 58.150957 
L 188.416684 58.150957 
L 178.868021 54.144 
L 169.319358 56.147478 
L 159.770695 56.147478 
L 150.222032 55.145739 
L 140.673369 54.144 
L 131.124706 54.144 
L 121.576043 57.149217 
L 112.02738 55.145739 
L 102.478717 54.144 
L 92.930053 56.147478 
L 83.38139 55.145739 
L 73.832727 57.149217 
z
" clip-path="url(#p93fb23f024)" style="fill: #17becf"/>
   </g>
   <g id="matplotlib.axis_1">
    <g id="xtick_1">
     <g id="line2d_1">
      <defs>
       <path id="m40a881f636" d="M 0 0 
L 0 3.5 
" style="stroke: #000000; stroke-width: 0.8"/>
      </defs>
      <g>
       <use xlink:href="#m40a881f636" x="73.832727" y="307.584" style="stroke: #000000; stroke-width: 0.8"/>
      </g>
     </g>
     <g id="text_1">
      <!-- 0 -->
      <g transform="translate(70.651477 322.182437) scale(0.1 -0.1)">
       <defs>
        <path id="DejaVuSans-30" d="M 2034 4250 
Q 1547 4250 1301 3770 
Q 1056 3291 1056 2328 
Q 1056 1369 1301 889 
Q 1547 409 2034 409 
Q 2525 409 2770 889 
Q 3016 1369 3016 2328 
Q 3016 3291 2770 3770 
Q 2525 4250 2034 4250 
z
M 2034 4750 
Q 2819 4750 3233 4129 
Q 3647 3509 3647 2328 
Q 3647 1150 3233 529 
Q 2819 -91 2034 -91 
Q 1250 -91 836 529 
Q 422 1150 422 2328 
Q 422 3509 836 4129 
Q 1250 4750 2034 4750 
z
" transform="scale(0.015625)"/>
       </defs>
       <use xlink:href="#DejaVuSans-30"/>
      </g>
     </g>
    </g>
    <g id="xtick_2">
     <g id="line2d_2">
      <g>
       <use xlink:href="#m40a881f636" x="121.576043" y="307.584" style="stroke: #000000; stroke-width: 0.8"/>
      </g>
     </g>
     <g id="text_2">
      <!-- 5 -->
      <g transform="translate(118.394793 322.182437) scale(0.1 -0.1)">
       <defs>
        <path id="DejaVuSans-35" d="M 691 4666 
L 3169 4666 
L 3169 4134 
L 1269 4134 
L 1269 2991 
Q 1406 3038 1543 3061 
Q 1681 3084 1819 3084 
Q 2600 3084 3056 2656 
Q 3513 2228 3513 1497 
Q 3513 744 3044 326 
Q 2575 -91 1722 -91 
Q 1428 -91 1123 -41 
Q 819 9 494 109 
L 494 744 
Q 775 591 1075 516 
Q 1375 441 1709 441 
Q 2250 441 2565 725 
Q 2881 1009 2881 1497 
Q 2881 1984 2565 2268 
Q 2250 2553 1709 2553 
Q 1456 2553 1204 2497 
Q 953 2441 691 2322 
L 691 4666 
z
" transform="scale(0.015625)"/>
       </defs>
       <use xlink:href="#DejaVuSans-35"/>
      </g>
     </g>
    </g>
    <g id="xtick_3">
     <g id="line2d_3">
      <g>
       <use xlink:href="#m40a881f636" x="169.319358" y="307.584" style="stroke: #000000; stroke-width: 0.8"/>
      </g>
     </g>
     <g id="text_3">
      <!-- 10 -->
      <g transform="translate(162.956858 322.182437) scale(0.1 -0.1)">
       <defs>
        <path id="DejaVuSans-31" d="M 794 531 
L 1825 531 
L 1825 4091 
L 703 3866 
L 703 4441 
L 1819 4666 
L 2450 4666 
L 2450 531 
L 3481 531 
L 3481 0 
L 794 0 
L 794 531 
z
" transform="scale(0.015625)"/>
       </defs>
       <use xlink:href="#DejaVuSans-31"/>
       <use xlink:href="#DejaVuSans-30" x="63.623047"/>
      </g>
     </g>
    </g>
    <g id="xtick_4">
     <g id="line2d_4">
      <g>
       <use xlink:href="#m40a881f636" x="217.062674" y="307.584" style="stroke: #000000; stroke-width: 0.8"/>
      </g>
     </g>
     <g id="text_4">
      <!-- 15 -->
      <g transform="translate(210.700174 322.182437) scale(0.1 -0.1)">
       <use xlink:href="#DejaVuSans-31"/>
       <use xlink:href="#DejaVuSans-35" x="63.623047"/>
      </g>
     </g>
    </g>
    <g id="xtick_5">
     <g id="line2d_5">
      <g>
       <use xlink:href="#m40a881f636" x="264.805989" y="307.584" style="stroke: #000000; stroke-width: 0.8"/>
      </g>
     </g>
     <g id="text_5">
      <!-- 20 -->
      <g transform="translate(258.443489 322.182437) scale(0.1 -0.1)">
       <defs>
        <path id="DejaVuSans-32" d="M 1228 531 
L 3431 531 
L 3431 0 
L 469 0 
L 469 531 
Q 828 903 1448 1529 
Q 2069 2156 2228 2338 
Q 2531 2678 2651 2914 
Q 2772 3150 2772 3378 
Q 2772 3750 2511 3984 
Q 2250 4219 1831 4219 
Q 1534 4219 1204 4116 
Q 875 4013 500 3803 
L 500 4441 
Q 881 4594 1212 4672 
Q 1544 4750 1819 4750 
Q 2544 4750 2975 4387 
Q 3406 4025 3406 3419 
Q 3406 3131 3298 2873 
Q 3191 2616 2906 2266 
Q 2828 2175 2409 1742 
Q 1991 1309 1228 531 
z
" transform="scale(0.015625)"/>
       </defs>
       <use xlink:href="#DejaVuSans-32"/>
       <use xlink:href="#DejaVuSans-30" x="63.623047"/>
      </g>
     </g>
    </g>
    <g id="xtick_6">
     <g id="line2d_6">
      <g>
       <use xlink:href="#m40a881f636" x="312.549305" y="307.584" style="stroke: #000000; stroke-width: 0.8"/>
      </g>
     </g>
     <g id="text_6">
      <!-- 25 -->
      <g transform="translate(306.186805 322.182437) scale(0.1 -0.1)">
       <use xlink:href="#DejaVuSans-32"/>
       <use xlink:href="#DejaVuSans-35" x="63.623047"/>
      </g>
     </g>
    </g>
    <g id="xtick_7">
     <g id="line2d_7">
      <g>
       <use xlink:href="#m40a881f636" x="360.29262" y="307.584" style="stroke: #000000; stroke-width: 0.8"/>
      </g>
     </g>
     <g id="text_7">
      <!-- 30 -->
      <g transform="translate(353.93012 322.182437) scale(0.1 -0.1)">
       <defs>
        <path id="DejaVuSans-33" d="M 2597 2516 
Q 3050 2419 3304 2112 
Q 3559 1806 3559 1356 
Q 3559 666 3084 287 
Q 2609 -91 1734 -91 
Q 1441 -91 1130 -33 
Q 819 25 488 141 
L 488 750 
Q 750 597 1062 519 
Q 1375 441 1716 441 
Q 2309 441 2620 675 
Q 2931 909 2931 1356 
Q 2931 1769 2642 2001 
Q 2353 2234 1838 2234 
L 1294 2234 
L 1294 2753 
L 1863 2753 
Q 2328 2753 2575 2939 
Q 2822 3125 2822 3475 
Q 2822 3834 2567 4026 
Q 2313 4219 1838 4219 
Q 1578 4219 1281 4162 
Q 984 4106 628 3988 
L 628 4550 
Q 988 4650 1302 4700 
Q 1616 4750 1894 4750 
Q 2613 4750 3031 4423 
Q 3450 4097 3450 3541 
Q 3450 3153 3228 2886 
Q 3006 2619 2597 2516 
z
" transform="scale(0.015625)"/>
       </defs>
       <use xlink:href="#DejaVuSans-33"/>
       <use xlink:href="#DejaVuSans-30" x="63.623047"/>
      </g>
     </g>
    </g>
    <g id="xtick_8">
     <g id="line2d_8">
      <g>
       <use xlink:href="#m40a881f636" x="408.035936" y="307.584" style="stroke: #000000; stroke-width: 0.8"/>
      </g>
     </g>
     <g id="text_8">
      <!-- 35 -->
      <g transform="translate(401.673436 322.182437) scale(0.1 -0.1)">
       <use xlink:href="#DejaVuSans-33"/>
       <use xlink:href="#DejaVuSans-35" x="63.623047"/>
      </g>
     </g>
    </g>
    <g id="text_9">
     <!-- Generations -->
     <g transform="translate(205.662344 335.860562) scale(0.1 -0.1)">
      <defs>
       <path id="DejaVuSans-47" d="M 3809 666 
L 3809 1919 
L 2778 1919 
L 2778 2438 
L 4434 2438 
L 4434 434 
Q 4069 175 3628 42 
Q 3188 -91 2688 -91 
Q 1594 -91 976 548 
Q 359 1188 359 2328 
Q 359 3472 976 4111 
Q 1594 4750 2688 4750 
Q 3144 4750 3555 4637 
Q 3966 4525 4313 4306 
L 4313 3634 
Q 3963 3931 3569 4081 
Q 3175 4231 2741 4231 
Q 1884 4231 1454 3753 
Q 1025 3275 1025 2328 
Q 1025 1384 1454 906 
Q 1884 428 2741 428 
Q 3075 428 3337 486 
Q 3600 544 3809 666 
z
" transform="scale(0.015625)"/>
       <path id="DejaVuSans-65" d="M 3597 1894 
L 3597 1613 
L 953 1613 
Q 991 1019 1311 708 
Q 1631 397 2203 397 
Q 2534 397 2845 478 
Q 3156 559 3463 722 
L 3463 178 
Q 3153 47 2828 -22 
Q 2503 -91 2169 -91 
Q 1331 -91 842 396 
Q 353 884 353 1716 
Q 353 2575 817 3079 
Q 1281 3584 2069 3584 
Q 2775 3584 3186 3129 
Q 3597 2675 3597 1894 
z
M 3022 2063 
Q 3016 2534 2758 2815 
Q 2500 3097 2075 3097 
Q 1594 3097 1305 2825 
Q 1016 2553 972 2059 
L 3022 2063 
z
" transform="scale(0.015625)"/>
       <path id="DejaVuSans-6e" d="M 3513 2113 
L 3513 0 
L 2938 0 
L 2938 2094 
Q 2938 2591 2744 2837 
Q 2550 3084 2163 3084 
Q 1697 3084 1428 2787 
Q 1159 2491 1159 1978 
L 1159 0 
L 581 0 
L 581 3500 
L 1159 3500 
L 1159 2956 
Q 1366 3272 1645 3428 
Q 1925 3584 2291 3584 
Q 2894 3584 3203 3211 
Q 3513 2838 3513 2113 
z
" transform="scale(0.015625)"/>
       <path id="DejaVuSans-72" d="M 2631 2963 
Q 2534 3019 2420 3045 
Q 2306 3072 2169 3072 
Q 1681 3072 1420 2755 
Q 1159 2438 1159 1844 
L 1159 0 
L 581 0 
L 581 3500 
L 1159 3500 
L 1159 2956 
Q 1341 3275 1631 3429 
Q 1922 3584 2338 3584 
Q 2397 3584 2469 3576 
Q 2541 3569 2628 3553 
L 2631 2963 
z
" transform="scale(0.015625)"/>
       <path id="DejaVuSans-61" d="M 2194 1759 
Q 1497 1759 1228 1600 
Q 959 1441 959 1056 
Q 959 750 1161 570 
Q 1363 391 1709 391 
Q 2188 391 2477 730 
Q 2766 1069 2766 1631 
L 2766 1759 
L 2194 1759 
z
M 3341 1997 
L 3341 0 
L 2766 0 
L 2766 531 
Q 2569 213 2275 61 
Q 1981 -91 1556 -91 
Q 1019 -91 701 211 
Q 384 513 384 1019 
Q 384 1609 779 1909 
Q 1175 2209 1959 2209 
L 2766 2209 
L 2766 2266 
Q 2766 2663 2505 2880 
Q 2244 3097 1772 3097 
Q 1472 3097 1187 3025 
Q 903 2953 641 2809 
L 641 3341 
Q 956 3463 1253 3523 
Q 1550 3584 1831 3584 
Q 2591 3584 2966 3190 
Q 3341 2797 3341 1997 
z
" transform="scale(0.015625)"/>
       <path id="DejaVuSans-74" d="M 1172 4494 
L 1172 3500 
L 2356 3500 
L 2356 3053 
L 1172 3053 
L 1172 1153 
Q 1172 725 1289 603 
Q 1406 481 1766 481 
L 2356 481 
L 2356 0 
L 1766 0 
Q 1100 0 847 248 
Q 594 497 594 1153 
L 594 3053 
L 172 3053 
L 172 3500 
L 594 3500 
L 594 4494 
L 1172 4494 
z
" transform="scale(0.015625)"/>
       <path id="DejaVuSans-69" d="M 603 3500 
L 1178 3500 
L 1178 0 
L 603 0 
L 603 3500 
z
M 603 4863 
L 1178 4863 
L 1178 4134 
L 603 4134 
L 603 4863 
z
" transform="scale(0.015625)"/>
       <path id="DejaVuSans-6f" d="M 1959 3097 
Q 1497 3097 1228 2736 
Q 959 2375 959 1747 
Q 959 1119 1226 758 
Q 1494 397 1959 397 
Q 2419 397 2687 759 
Q 2956 1122 2956 1747 
Q 2956 2369 2687 2733 
Q 2419 3097 1959 3097 
z
M 1959 3584 
Q 2709 3584 3137 3096 
Q 3566 2609 3566 1747 
Q 3566 888 3137 398 
Q 2709 -91 1959 -91 
Q 1206 -91 779 398 
Q 353 888 353 1747 
Q 353 2609 779 3096 
Q 1206 3584 1959 3584 
z
" transform="scale(0.015625)"/>
       <path id="DejaVuSans-73" d="M 2834 3397 
L 2834 2853 
Q 2591 2978 2328 3040 
Q 2066 3103 1784 3103 
Q 1356 3103 1142 2972 
Q 928 2841 928 2578 
Q 928 2378 1081 2264 
Q 1234 2150 1697 2047 
L 1894 2003 
Q 2506 1872 2764 1633 
Q 3022 1394 3022 966 
Q 3022 478 2636 193 
Q 2250 -91 1575 -91 
Q 1294 -91 989 -36 
Q 684 19 347 128 
L 347 722 
Q 666 556 975 473 
Q 1284 391 1588 391 
Q 1994 391 2212 530 
Q 2431 669 2431 922 
Q 2431 1156 2273 1281 
Q 2116 1406 1581 1522 
L 1381 1569 
Q 847 1681 609 1914 
Q 372 2147 372 2553 
Q 372 3047 722 3315 
Q 1072 3584 1716 3584 
Q 2034 3584 2315 3537 
Q 2597 3491 2834 3397 
z
" transform="scale(0.015625)"/>
      </defs>
      <use xlink:href="#DejaVuSans-47"/>
      <use xlink:href="#DejaVuSans-65" x="77.490234"/>
      <use xlink:href="#DejaVuSans-6e" x="139.013672"/>
      <use xlink:href="#DejaVuSans-65" x="202.392578"/>
      <use xlink:href="#DejaVuSans-72" x="263.916016"/>
      <use xlink:href="#DejaVuSans-61" x="305.029297"/>
      <use xlink:href="#DejaVuSans-74" x="366.308594"/>
      <use xlink:href="#DejaVuSans-69" x="405.517578"/>
      <use xlink:href="#DejaVuSans-6f" x="433.300781"/>
      <use xlink:href="#DejaVuSans-6e" x="494.482422"/>
      <use xlink:href="#DejaVuSans-73" x="557.861328"/>
     </g>
    </g>
   </g>
   <g id="matplotlib.axis_2">
    <g id="ytick_1">
     <g id="line2d_9">
      <defs>
       <path id="m8bc101610a" d="M 0 0 
L -3.5 0 
" style="stroke: #000000; stroke-width: 0.8"/>
      </defs>
      <g>
       <use xlink:href="#m8bc101610a" x="57.6" y="307.584" style="stroke: #000000; stroke-width: 0.8"/>
      </g>
     </g>
     <g id="text_10">
      <!-- 0 -->
      <g transform="translate(44.2375 311.383219) scale(0.1 -0.1)">
       <use xlink:href="#DejaVuSans-30"/>
      </g>
     </g>
    </g>
    <g id="ytick_2">
     <g id="line2d_10">
      <g>
       <use xlink:href="#m8bc101610a" x="57.6" y="257.497043" style="stroke: #000000; stroke-width: 0.8"/>
      </g>
     </g>
     <g id="text_11">
      <!-- 50 -->
      <g transform="translate(37.875 261.296262) scale(0.1 -0.1)">
       <use xlink:href="#DejaVuSans-35"/>
       <use xlink:href="#DejaVuSans-30" x="63.623047"/>
      </g>
     </g>
    </g>
    <g id="ytick_3">
     <g id="line2d_11">
      <g>
       <use xlink:href="#m8bc101610a" x="57.6" y="207.410087" style="stroke: #000000; stroke-width: 0.8"/>
      </g>
     </g>
     <g id="text_12">
      <!-- 100 -->
      <g transform="translate(31.5125 211.209306) scale(0.1 -0.1)">
       <use xlink:href="#DejaVuSans-31"/>
       <use xlink:href="#DejaVuSans-30" x="63.623047"/>
       <use xlink:href="#DejaVuSans-30" x="127.246094"/>
      </g>
     </g>
    </g>
    <g id="ytick_4">
     <g id="line2d_12">
      <g>
       <use xlink:href="#m8bc101610a" x="57.6" y="157.32313" style="stroke: #000000; stroke-width: 0.8"/>
      </g>
     </g>
     <g id="text_13">
      <!-- 150 -->
      <g transform="translate(31.5125 161.122349) scale(0.1 -0.1)">
       <use xlink:href="#DejaVuSans-31"/>
       <use xlink:href="#DejaVuSans-35" x="63.623047"/>
       <use xlink:href="#DejaVuSans-30" x="127.246094"/>
      </g>
     </g>
    </g>
    <g id="ytick_5">
     <g id="line2d_13">
      <g>
       <use xlink:href="#m8bc101610a" x="57.6" y="107.236174" style="stroke: #000000; stroke-width: 0.8"/>
      </g>
     </g>
     <g id="text_14">
      <!-- 200 -->
      <g transform="translate(31.5125 111.035393) scale(0.1 -0.1)">
       <use xlink:href="#DejaVuSans-32"/>
       <use xlink:href="#DejaVuSans-30" x="63.623047"/>
       <use xlink:href="#DejaVuSans-30" x="127.246094"/>
      </g>
     </g>
    </g>
    <g id="ytick_6">
     <g id="line2d_14">
      <g>
       <use xlink:href="#m8bc101610a" x="57.6" y="57.149217" style="stroke: #000000; stroke-width: 0.8"/>
      </g>
     </g>
     <g id="text_15">
      <!-- 250 -->
      <g transform="translate(31.5125 60.948436) scale(0.1 -0.1)">
       <use xlink:href="#DejaVuSans-32"/>
       <use xlink:href="#DejaVuSans-35" x="63.623047"/>
       <use xlink:href="#DejaVuSans-30" x="127.246094"/>
      </g>
     </g>
    </g>
    <g id="text_16">
     <!-- Size per Species -->
     <g transform="translate(25.432812 215.520969) rotate(-90) scale(0.1 -0.1)">
      <defs>
       <path id="DejaVuSans-53" d="M 3425 4513 
L 3425 3897 
Q 3066 4069 2747 4153 
Q 2428 4238 2131 4238 
Q 1616 4238 1336 4038 
Q 1056 3838 1056 3469 
Q 1056 3159 1242 3001 
Q 1428 2844 1947 2747 
L 2328 2669 
Q 3034 2534 3370 2195 
Q 3706 1856 3706 1288 
Q 3706 609 3251 259 
Q 2797 -91 1919 -91 
Q 1588 -91 1214 -16 
Q 841 59 441 206 
L 441 856 
Q 825 641 1194 531 
Q 1563 422 1919 422 
Q 2459 422 2753 634 
Q 3047 847 3047 1241 
Q 3047 1584 2836 1778 
Q 2625 1972 2144 2069 
L 1759 2144 
Q 1053 2284 737 2584 
Q 422 2884 422 3419 
Q 422 4038 858 4394 
Q 1294 4750 2059 4750 
Q 2388 4750 2728 4690 
Q 3069 4631 3425 4513 
z
" transform="scale(0.015625)"/>
       <path id="DejaVuSans-7a" d="M 353 3500 
L 3084 3500 
L 3084 2975 
L 922 459 
L 3084 459 
L 3084 0 
L 275 0 
L 275 525 
L 2438 3041 
L 353 3041 
L 353 3500 
z
" transform="scale(0.015625)"/>
       <path id="DejaVuSans-20" transform="scale(0.015625)"/>
       <path id="DejaVuSans-70" d="M 1159 525 
L 1159 -1331 
L 581 -1331 
L 581 3500 
L 1159 3500 
L 1159 2969 
Q 1341 3281 1617 3432 
Q 1894 3584 2278 3584 
Q 2916 3584 3314 3078 
Q 3713 2572 3713 1747 
Q 3713 922 3314 415 
Q 2916 -91 2278 -91 
Q 1894 -91 1617 61 
Q 1341 213 1159 525 
z
M 3116 1747 
Q 3116 2381 2855 2742 
Q 2594 3103 2138 3103 
Q 1681 3103 1420 2742 
Q 1159 2381 1159 1747 
Q 1159 1113 1420 752 
Q 1681 391 2138 391 
Q 2594 391 2855 752 
Q 3116 1113 3116 1747 
z
" transform="scale(0.015625)"/>
       <path id="DejaVuSans-63" d="M 3122 3366 
L 3122 2828 
Q 2878 2963 2633 3030 
Q 2388 3097 2138 3097 
Q 1578 3097 1268 2742 
Q 959 2388 959 1747 
Q 959 1106 1268 751 
Q 1578 397 2138 397 
Q 2388 397 2633 464 
Q 2878 531 3122 666 
L 3122 134 
Q 2881 22 2623 -34 
Q 2366 -91 2075 -91 
Q 1284 -91 818 406 
Q 353 903 353 1747 
Q 353 2603 823 3093 
Q 1294 3584 2113 3584 
Q 2378 3584 2631 3529 
Q 2884 3475 3122 3366 
z
" transform="scale(0.015625)"/>
      </defs>
      <use xlink:href="#DejaVuSans-53"/>
      <use xlink:href="#DejaVuSans-69" x="63.476562"/>
      <use xlink:href="#DejaVuSans-7a" x="91.259766"/>
      <use xlink:href="#DejaVuSans-65" x="143.75"/>
      <use xlink:href="#DejaVuSans-20" x="205.273438"/>
      <use xlink:href="#DejaVuSans-70" x="237.060547"/>
      <use xlink:href="#DejaVuSans-65" x="300.537109"/>
      <use xlink:href="#DejaVuSans-72" x="362.060547"/>
      <use xlink:href="#DejaVuSans-20" x="403.173828"/>
      <use xlink:href="#DejaVuSans-53" x="434.960938"/>
      <use xlink:href="#DejaVuSans-70" x="498.4375"/>
      <use xlink:href="#DejaVuSans-65" x="561.914062"/>
      <use xlink:href="#DejaVuSans-63" x="623.4375"/>
      <use xlink:href="#DejaVuSans-69" x="678.417969"/>
      <use xlink:href="#DejaVuSans-65" x="706.201172"/>
      <use xlink:href="#DejaVuSans-73" x="767.724609"/>
     </g>
    </g>
   </g>
   <g id="patch_3">
    <path d="M 57.6 307.584 
L 57.6 41.472 
" style="fill: none; stroke: #000000; stroke-width: 0.8; stroke-linejoin: miter; stroke-linecap: square"/>
   </g>
   <g id="patch_4">
    <path d="M 414.72 307.584 
L 414.72 41.472 
" style="fill: none; stroke: #000000; stroke-width: 0.8; stroke-linejoin: miter; stroke-linecap: square"/>
   </g>
   <g id="patch_5">
    <path d="M 57.6 307.584 
L 414.72 307.584 
" style="fill: none; stroke: #000000; stroke-width: 0.8; stroke-linejoin: miter; stroke-linecap: square"/>
   </g>
   <g id="patch_6">
    <path d="M 57.6 41.472 
L 414.72 41.472 
" style="fill: none; stroke: #000000; stroke-width: 0.8; stroke-linejoin: miter; stroke-linecap: square"/>
   </g>
   <g id="text_17">
    <!-- Speciation -->
    <g transform="translate(204.714375 35.472) scale(0.12 -0.12)">
     <use xlink:href="#DejaVuSans-53"/>
     <use xlink:href="#DejaVuSans-70" x="63.476562"/>
     <use xlink:href="#DejaVuSans-65" x="126.953125"/>
     <use xlink:href="#DejaVuSans-63" x="188.476562"/>
     <use xlink:href="#DejaVuSans-69" x="243.457031"/>
     <use xlink:href="#DejaVuSans-61" x="271.240234"/>
     <use xlink:href="#DejaVuSans-74" x="332.519531"/>
     <use xlink:href="#DejaVuSans-69" x="371.728516"/>
     <use xlink:href="#DejaVuSans-6f" x="399.511719"/>
     <use xlink:href="#DejaVuSans-6e" x="460.693359"/>
    </g>
   </g>
  </g>
 </g>
 <defs>
  <clipPath id="p93fb23f024">
   <rect x="57.6" y="41.472" width="357.12" height="266.112"/>
  </clipPath>
 </defs>
</svg>
