<?xml version="1.0" encoding="UTF-8" standalone="no"?>
<!DOCTYPE svg PUBLIC "-//W3C//DTD SVG 1.1//EN"
 "http://www.w3.org/Graphics/SVG/1.1/DTD/svg11.dtd">
<!-- Generated by graphviz version 2.43.0 (0)
 -->
<!-- Title: %3 Pages: 1 -->
<svg width="264pt" height="227pt"
 viewBox="0.00 0.00 263.99 226.69" xmlns="http://www.w3.org/2000/svg" xmlns:xlink="http://www.w3.org/1999/xlink">
<g id="graph0" class="graph" transform="scale(1 1) rotate(0) translate(4 222.69)">
<title>%3</title>
<polygon fill="white" stroke="transparent" points="-4,4 -4,-222.69 259.99,-222.69 259.99,4 -4,4"/>
<!-- x -->
<g id="node1" class="node">
<title>x</title>
<polygon fill="lightgray" stroke="black" points="22,-218.69 0,-218.69 0,-200.69 22,-200.69 22,-218.69"/>
<text text-anchor="middle" x="11" y="-207.49" font-family="Times,serif" font-size="9.00">x</text>
</g>
<!-- dx -->
<g id="node2" class="node">
<title>dx</title>
<polygon fill="lightgray" stroke="black" points="68,-218.69 40,-218.69 40,-200.69 68,-200.69 68,-218.69"/>
<text text-anchor="middle" x="54" y="-207.49" font-family="Times,serif" font-size="9.00">dx</text>
</g>
<!-- 1406 -->
<g id="node7" class="node">
<title>1406</title>
<ellipse fill="white" stroke="black" cx="54" cy="-135.7" rx="28.98" ry="28.98"/>
<text text-anchor="middle" x="54" y="-133.5" font-family="Times,serif" font-size="9.00">1406</text>
</g>
<!-- dx&#45;&gt;1406 -->
<g id="edge7" class="edge">
<title>dx&#45;&gt;1406</title>
<path fill="none" stroke="green" stroke-width="0.33" d="M54,-200.44C54,-193.97 54,-184.46 54,-174.76"/>
<polygon fill="green" stroke="green" stroke-width="0.33" points="57.5,-174.7 54,-164.7 50.5,-174.7 57.5,-174.7"/>
</g>
<!-- theta -->
<g id="node3" class="node">
<title>theta</title>
<polygon fill="lightgray" stroke="black" points="141.5,-144.7 100.5,-144.7 100.5,-126.7 141.5,-126.7 141.5,-144.7"/>
<text text-anchor="middle" x="121" y="-133.5" font-family="Times,serif" font-size="9.00">theta</text>
</g>
<!-- control -->
<g id="node5" class="node">
<title>control</title>
<ellipse fill="lightblue" stroke="black" cx="145" cy="-35.36" rx="35.21" ry="35.21"/>
<text text-anchor="middle" x="145" y="-33.16" font-family="Times,serif" font-size="9.00">control</text>
</g>
<!-- theta&#45;&gt;control -->
<g id="edge2" class="edge">
<title>theta&#45;&gt;control</title>
<path fill="none" stroke="green" stroke-width="0.49" d="M122.96,-126.65C125.47,-116.38 130,-97.8 134.31,-80.16"/>
<polygon fill="green" stroke="green" stroke-width="0.49" points="137.83,-80.5 136.8,-69.96 131.03,-78.84 137.83,-80.5"/>
</g>
<!-- dtheta -->
<g id="node4" class="node">
<title>dtheta</title>
<polygon fill="lightgray" stroke="black" points="193.5,-218.69 146.5,-218.69 146.5,-200.69 193.5,-200.69 193.5,-218.69"/>
<text text-anchor="middle" x="170" y="-207.49" font-family="Times,serif" font-size="9.00">dtheta</text>
</g>
<!-- dtheta&#45;&gt;control -->
<g id="edge1" class="edge">
<title>dtheta&#45;&gt;control</title>
<path fill="none" stroke="green" stroke-width="1.16" d="M168.79,-200.38C165.71,-179.12 157.36,-121.56 151.42,-80.64"/>
<polygon fill="green" stroke="green" stroke-width="1.16" points="154.87,-80.03 149.97,-70.63 147.94,-81.03 154.87,-80.03"/>
</g>
<!-- 1453 -->
<g id="node6" class="node">
<title>1453</title>
<ellipse fill="white" stroke="black" cx="227" cy="-135.7" rx="28.98" ry="28.98"/>
<text text-anchor="middle" x="227" y="-133.5" font-family="Times,serif" font-size="9.00">1453</text>
</g>
<!-- dtheta&#45;&gt;1453 -->
<g id="edge5" class="edge">
<title>dtheta&#45;&gt;1453</title>
<path fill="none" stroke="red" stroke-width="0.52" d="M176.54,-200.44C183.06,-192.19 193.48,-179.03 203.17,-166.8"/>
<polygon fill="red" stroke="red" stroke-width="0.52" points="205.91,-168.98 209.37,-158.96 200.42,-164.63 205.91,-168.98"/>
</g>
<!-- dtheta&#45;&gt;1406 -->
<g id="edge3" class="edge">
<title>dtheta&#45;&gt;1406</title>
<path fill="none" stroke="green" stroke-width="0.29" d="M153.88,-200.56C137.64,-192.17 112.04,-178.42 91,-164.69 88.87,-163.31 86.71,-161.84 84.55,-160.33"/>
<polygon fill="green" stroke="green" stroke-width="0.29" points="86.49,-157.41 76.34,-154.39 82.39,-163.08 86.49,-157.41"/>
</g>
<!-- 1453&#45;&gt;control -->
<g id="edge6" class="edge">
<title>1453&#45;&gt;control</title>
<path fill="none" stroke="green" stroke-width="1.14" d="M208.8,-112.88C198.55,-100.58 185.5,-84.93 173.88,-71"/>
<polygon fill="green" stroke="green" stroke-width="1.14" points="176.33,-68.47 167.24,-63.03 170.95,-72.95 176.33,-68.47"/>
</g>
<!-- 1406&#45;&gt;control -->
<g id="edge4" class="edge">
<title>1406&#45;&gt;control</title>
<path fill="none" stroke="green" stroke-width="1.35" d="M73.3,-113.85C85.21,-100.98 100.74,-84.18 114.31,-69.52"/>
<polygon fill="green" stroke="green" stroke-width="1.35" points="116.97,-71.8 121.19,-62.08 111.83,-67.05 116.97,-71.8"/>
</g>
</g>
</svg>
