<?xml version="1.0" encoding="utf-8" standalone="no"?>
<!DOCTYPE svg PUBLIC "-//W3C//DTD SVG 1.1//EN"
  "http://www.w3.org/Graphics/SVG/1.1/DTD/svg11.dtd">
<svg xmlns:xlink="http://www.w3.org/1999/xlink" width="460.8pt" height="345.6pt" viewBox="0 0 460.8 345.6" xmlns="http://www.w3.org/2000/svg" version="1.1">
 <metadata>
  <rdf:RDF xmlns:dc="http://purl.org/dc/elements/1.1/" xmlns:cc="http://creativecommons.org/ns#" xmlns:rdf="http://www.w3.org/1999/02/22-rdf-syntax-ns#">
   <cc:Work>
    <dc:type rdf:resource="http://purl.org/dc/dcmitype/StillImage"/>
    <dc:date>2022-11-13T11:20:00.884693</dc:date>
    <dc:format>image/svg+xml</dc:format>
    <dc:creator>
     <cc:Agent>
      <dc:title>Matplotlib v3.6.2, https://matplotlib.org/</dc:title>
     </cc:Agent>
    </dc:creator>
   </cc:Work>
  </rdf:RDF>
 </metadata>
 <defs>
  <style type="text/css">*{stroke-linejoin: round; stroke-linecap: butt}</style>
 </defs>
 <g id="figure_1">
  <g id="patch_1">
   <path d="M 0 345.6 
L 460.8 345.6 
L 460.8 0 
L 0 0 
z
" style="fill: #ffffff"/>
  </g>
  <g id="axes_1">
   <g id="patch_2">
    <path d="M 57.6 307.584 
L 414.72 307.584 
L 414.72 41.472 
L 57.6 41.472 
z
" style="fill: #ffffff"/>
   </g>
   <g id="PolyCollection_1">
    <path d="M 73.832727 230.061176 
L 73.832727 307.584 
L 82.376268 307.584 
L 90.919809 307.584 
L 99.463349 307.584 
L 108.00689 307.584 
L 116.550431 307.584 
L 125.093971 307.584 
L 133.637512 307.584 
L 142.181053 307.584 
L 150.724593 307.584 
L 159.268134 307.584 
L 167.811675 307.584 
L 176.355215 307.584 
L 184.898756 307.584 
L 193.442297 307.584 
L 201.985837 307.584 
L 210.529378 307.584 
L 219.072919 307.584 
L 227.616459 307.584 
L 236.16 307.584 
L 244.703541 307.584 
L 253.247081 307.584 
L 261.790622 307.584 
L 270.334163 307.584 
L 278.877703 307.584 
L 287.421244 307.584 
L 295.964785 307.584 
L 304.508325 307.584 
L 313.051866 307.584 
L 321.595407 307.584 
L 330.138947 307.584 
L 338.682488 307.584 
L 347.226029 307.584 
L 355.769569 307.584 
L 364.31311 307.584 
L 372.856651 307.584 
L 381.400191 307.584 
L 389.943732 307.584 
L 398.487273 307.584 
L 398.487273 276.773647 
L 398.487273 276.773647 
L 389.943732 297.645176 
L 381.400191 288.700235 
L 372.856651 275.779765 
L 364.31311 284.724706 
L 355.769569 283.730824 
L 347.226029 281.743059 
L 338.682488 293.669647 
L 330.138947 288.700235 
L 321.595407 265.840941 
L 313.051866 279.755294 
L 304.508325 268.822588 
L 295.964785 274.785882 
L 287.421244 252.920471 
L 278.877703 298.639059 
L 270.334163 270.810353 
L 261.790622 290.688 
L 253.247081 288.700235 
L 244.703541 291.681882 
L 236.16 295.657412 
L 227.616459 292.675765 
L 219.072919 282.736941 
L 210.529378 288.700235 
L 201.985837 299.632941 
L 193.442297 292.675765 
L 184.898756 295.657412 
L 176.355215 291.681882 
L 167.811675 300.626824 
L 159.268134 303.608471 
L 150.724593 294.663529 
L 142.181053 286.712471 
L 133.637512 294.663529 
L 125.093971 286.712471 
L 116.550431 282.736941 
L 108.00689 265.840941 
L 99.463349 285.718588 
L 90.919809 289.694118 
L 82.376268 298.639059 
L 73.832727 230.061176 
z
" clip-path="url(#p6341fa1222)" style="fill: #1f77b4"/>
   </g>
   <g id="PolyCollection_2">
    <path d="M 73.832727 186.330353 
L 73.832727 230.061176 
L 82.376268 298.639059 
L 90.919809 289.694118 
L 99.463349 285.718588 
L 108.00689 265.840941 
L 116.550431 282.736941 
L 125.093971 286.712471 
L 133.637512 294.663529 
L 142.181053 286.712471 
L 150.724593 294.663529 
L 159.268134 303.608471 
L 167.811675 300.626824 
L 176.355215 291.681882 
L 184.898756 295.657412 
L 193.442297 292.675765 
L 201.985837 299.632941 
L 210.529378 288.700235 
L 219.072919 282.736941 
L 227.616459 292.675765 
L 236.16 295.657412 
L 244.703541 291.681882 
L 253.247081 288.700235 
L 261.790622 290.688 
L 270.334163 270.810353 
L 278.877703 298.639059 
L 287.421244 252.920471 
L 295.964785 274.785882 
L 304.508325 268.822588 
L 313.051866 279.755294 
L 321.595407 265.840941 
L 330.138947 288.700235 
L 338.682488 293.669647 
L 347.226029 281.743059 
L 355.769569 283.730824 
L 364.31311 284.724706 
L 372.856651 275.779765 
L 381.400191 288.700235 
L 389.943732 297.645176 
L 398.487273 276.773647 
L 398.487273 256.896 
L 398.487273 256.896 
L 389.943732 270.810353 
L 381.400191 264.847059 
L 372.856651 261.865412 
L 364.31311 267.828706 
L 355.769569 266.834824 
L 347.226029 252.920471 
L 338.682488 274.785882 
L 330.138947 262.859294 
L 321.595407 238.012235 
L 313.051866 265.840941 
L 304.508325 249.938824 
L 295.964785 267.828706 
L 287.421244 249.938824 
L 278.877703 285.718588 
L 270.334163 261.865412 
L 261.790622 279.755294 
L 253.247081 280.749176 
L 244.703541 273.792 
L 236.16 282.736941 
L 227.616459 285.718588 
L 219.072919 255.902118 
L 210.529378 280.749176 
L 201.985837 270.810353 
L 193.442297 263.853176 
L 184.898756 277.767529 
L 176.355215 259.877647 
L 167.811675 262.859294 
L 159.268134 251.926588 
L 150.724593 270.810353 
L 142.181053 275.779765 
L 133.637512 262.859294 
L 125.093971 274.785882 
L 116.550431 239.006118 
L 108.00689 245.963294 
L 99.463349 264.847059 
L 90.919809 270.810353 
L 82.376268 282.736941 
L 73.832727 186.330353 
z
" clip-path="url(#p6341fa1222)" style="fill: #ff7f0e"/>
   </g>
   <g id="PolyCollection_3">
    <path d="M 73.832727 172.416 
L 73.832727 186.330353 
L 82.376268 282.736941 
L 90.919809 270.810353 
L 99.463349 264.847059 
L 108.00689 245.963294 
L 116.550431 239.006118 
L 125.093971 274.785882 
L 133.637512 262.859294 
L 142.181053 275.779765 
L 150.724593 270.810353 
L 159.268134 251.926588 
L 167.811675 262.859294 
L 176.355215 259.877647 
L 184.898756 277.767529 
L 193.442297 263.853176 
L 201.985837 270.810353 
L 210.529378 280.749176 
L 219.072919 255.902118 
L 227.616459 285.718588 
L 236.16 282.736941 
L 244.703541 273.792 
L 253.247081 280.749176 
L 261.790622 279.755294 
L 270.334163 261.865412 
L 278.877703 285.718588 
L 287.421244 249.938824 
L 295.964785 267.828706 
L 304.508325 249.938824 
L 313.051866 265.840941 
L 321.595407 238.012235 
L 330.138947 262.859294 
L 338.682488 274.785882 
L 347.226029 252.920471 
L 355.769569 266.834824 
L 364.31311 267.828706 
L 372.856651 261.865412 
L 381.400191 264.847059 
L 389.943732 270.810353 
L 398.487273 256.896 
L 398.487273 241.987765 
L 398.487273 241.987765 
L 389.943732 257.889882 
L 381.400191 250.932706 
L 372.856651 252.920471 
L 364.31311 259.877647 
L 355.769569 250.932706 
L 347.226029 234.036706 
L 338.682488 251.926588 
L 330.138947 256.896 
L 321.595407 224.097882 
L 313.051866 252.920471 
L 304.508325 239.006118 
L 295.964785 256.896 
L 287.421244 234.036706 
L 278.877703 274.785882 
L 270.334163 251.926588 
L 261.790622 262.859294 
L 253.247081 265.840941 
L 244.703541 259.877647 
L 236.16 272.798118 
L 227.616459 272.798118 
L 219.072919 251.926588 
L 210.529378 269.816471 
L 201.985837 253.914353 
L 193.442297 248.944941 
L 184.898756 267.828706 
L 176.355215 250.932706 
L 167.811675 251.926588 
L 159.268134 236.024471 
L 150.724593 251.926588 
L 142.181053 262.859294 
L 133.637512 251.926588 
L 125.093971 266.834824 
L 116.550431 234.036706 
L 108.00689 241.987765 
L 99.463349 260.871529 
L 90.919809 267.828706 
L 82.376268 265.840941 
L 73.832727 172.416 
z
" clip-path="url(#p6341fa1222)" style="fill: #2ca02c"/>
   </g>
   <g id="PolyCollection_4">
    <path d="M 73.832727 152.538353 
L 73.832727 172.416 
L 82.376268 265.840941 
L 90.919809 267.828706 
L 99.463349 260.871529 
L 108.00689 241.987765 
L 116.550431 234.036706 
L 125.093971 266.834824 
L 133.637512 251.926588 
L 142.181053 262.859294 
L 150.724593 251.926588 
L 159.268134 236.024471 
L 167.811675 251.926588 
L 176.355215 250.932706 
L 184.898756 267.828706 
L 193.442297 248.944941 
L 201.985837 253.914353 
L 210.529378 269.816471 
L 219.072919 251.926588 
L 227.616459 272.798118 
L 236.16 272.798118 
L 244.703541 259.877647 
L 253.247081 265.840941 
L 261.790622 262.859294 
L 270.334163 251.926588 
L 278.877703 274.785882 
L 287.421244 234.036706 
L 295.964785 256.896 
L 304.508325 239.006118 
L 313.051866 252.920471 
L 321.595407 224.097882 
L 330.138947 256.896 
L 338.682488 251.926588 
L 347.226029 234.036706 
L 355.769569 250.932706 
L 364.31311 259.877647 
L 372.856651 252.920471 
L 381.400191 250.932706 
L 389.943732 257.889882 
L 398.487273 241.987765 
L 398.487273 241.987765 
L 398.487273 241.987765 
L 389.943732 257.889882 
L 381.400191 250.932706 
L 372.856651 240 
L 364.31311 243.975529 
L 355.769569 221.116235 
L 347.226029 212.171294 
L 338.682488 229.067294 
L 330.138947 240.993882 
L 321.595407 206.208 
L 313.051866 241.987765 
L 304.508325 221.116235 
L 295.964785 248.944941 
L 287.421244 209.189647 
L 278.877703 258.883765 
L 270.334163 246.957176 
L 261.790622 257.889882 
L 253.247081 257.889882 
L 244.703541 254.908235 
L 236.16 269.816471 
L 227.616459 262.859294 
L 219.072919 242.981647 
L 210.529378 262.859294 
L 201.985837 242.981647 
L 193.442297 245.963294 
L 184.898756 247.951059 
L 176.355215 240 
L 167.811675 240.993882 
L 159.268134 227.079529 
L 150.724593 244.969412 
L 142.181053 241.987765 
L 133.637512 245.963294 
L 125.093971 223.104 
L 116.550431 213.165176 
L 108.00689 235.030588 
L 99.463349 244.969412 
L 90.919809 237.018353 
L 82.376268 251.926588 
L 73.832727 152.538353 
z
" clip-path="url(#p6341fa1222)" style="fill: #d62728"/>
   </g>
   <g id="PolyCollection_5">
    <path d="M 73.832727 138.624 
L 73.832727 152.538353 
L 82.376268 251.926588 
L 90.919809 237.018353 
L 99.463349 244.969412 
L 108.00689 235.030588 
L 116.550431 213.165176 
L 125.093971 223.104 
L 133.637512 245.963294 
L 142.181053 241.987765 
L 150.724593 244.969412 
L 159.268134 227.079529 
L 167.811675 240.993882 
L 176.355215 240 
L 184.898756 247.951059 
L 193.442297 245.963294 
L 201.985837 242.981647 
L 210.529378 262.859294 
L 219.072919 242.981647 
L 227.616459 262.859294 
L 236.16 269.816471 
L 244.703541 254.908235 
L 253.247081 257.889882 
L 261.790622 257.889882 
L 270.334163 246.957176 
L 278.877703 258.883765 
L 287.421244 209.189647 
L 295.964785 248.944941 
L 304.508325 221.116235 
L 313.051866 241.987765 
L 321.595407 206.208 
L 330.138947 240.993882 
L 338.682488 229.067294 
L 347.226029 212.171294 
L 355.769569 221.116235 
L 364.31311 243.975529 
L 372.856651 240 
L 381.400191 250.932706 
L 389.943732 257.889882 
L 398.487273 241.987765 
L 398.487273 223.104 
L 398.487273 223.104 
L 389.943732 232.048941 
L 381.400191 236.024471 
L 372.856651 221.116235 
L 364.31311 233.042824 
L 355.769569 207.201882 
L 347.226029 203.226353 
L 338.682488 218.134588 
L 330.138947 235.030588 
L 321.595407 198.256941 
L 313.051866 202.232471 
L 304.508325 199.250824 
L 295.964785 225.091765 
L 287.421244 188.318118 
L 278.877703 231.055059 
L 270.334163 236.024471 
L 261.790622 237.018353 
L 253.247081 244.969412 
L 244.703541 250.932706 
L 236.16 256.896 
L 227.616459 253.914353 
L 219.072919 226.085647 
L 210.529378 250.932706 
L 201.985837 234.036706 
L 193.442297 232.048941 
L 184.898756 234.036706 
L 176.355215 230.061176 
L 167.811675 227.079529 
L 159.268134 218.134588 
L 150.724593 243.975529 
L 142.181053 238.012235 
L 133.637512 242.981647 
L 125.093971 222.110118 
L 116.550431 210.183529 
L 108.00689 232.048941 
L 99.463349 241.987765 
L 90.919809 230.061176 
L 82.376268 226.085647 
L 73.832727 138.624 
z
" clip-path="url(#p6341fa1222)" style="fill: #9467bd"/>
   </g>
   <g id="PolyCollection_6">
    <path d="M 73.832727 110.795294 
L 73.832727 138.624 
L 82.376268 226.085647 
L 90.919809 230.061176 
L 99.463349 241.987765 
L 108.00689 232.048941 
L 116.550431 210.183529 
L 125.093971 222.110118 
L 133.637512 242.981647 
L 142.181053 238.012235 
L 150.724593 243.975529 
L 159.268134 218.134588 
L 167.811675 227.079529 
L 176.355215 230.061176 
L 184.898756 234.036706 
L 193.442297 232.048941 
L 201.985837 234.036706 
L 210.529378 250.932706 
L 219.072919 226.085647 
L 227.616459 253.914353 
L 236.16 256.896 
L 244.703541 250.932706 
L 253.247081 244.969412 
L 261.790622 237.018353 
L 270.334163 236.024471 
L 278.877703 231.055059 
L 287.421244 188.318118 
L 295.964785 225.091765 
L 304.508325 199.250824 
L 313.051866 202.232471 
L 321.595407 198.256941 
L 330.138947 235.030588 
L 338.682488 218.134588 
L 347.226029 203.226353 
L 355.769569 207.201882 
L 364.31311 233.042824 
L 372.856651 221.116235 
L 381.400191 236.024471 
L 389.943732 232.048941 
L 398.487273 223.104 
L 398.487273 208.195765 
L 398.487273 208.195765 
L 389.943732 222.110118 
L 381.400191 221.116235 
L 372.856651 198.256941 
L 364.31311 212.171294 
L 355.769569 194.281412 
L 347.226029 194.281412 
L 338.682488 202.232471 
L 330.138947 209.189647 
L 321.595407 186.330353 
L 313.051866 186.330353 
L 304.508325 189.312 
L 295.964785 219.128471 
L 287.421244 173.409882 
L 278.877703 219.128471 
L 270.334163 226.085647 
L 261.790622 221.116235 
L 253.247081 238.012235 
L 244.703541 226.085647 
L 236.16 233.042824 
L 227.616459 237.018353 
L 219.072919 213.165176 
L 210.529378 221.116235 
L 201.985837 217.140706 
L 193.442297 226.085647 
L 184.898756 227.079529 
L 176.355215 218.134588 
L 167.811675 204.220235 
L 159.268134 213.165176 
L 150.724593 238.012235 
L 142.181053 231.055059 
L 133.637512 233.042824 
L 125.093971 217.140706 
L 116.550431 204.220235 
L 108.00689 225.091765 
L 99.463349 237.018353 
L 90.919809 221.116235 
L 82.376268 214.159059 
L 73.832727 110.795294 
z
" clip-path="url(#p6341fa1222)" style="fill: #8c564b"/>
   </g>
   <g id="PolyCollection_7">
    <path d="M 73.832727 109.801412 
L 73.832727 110.795294 
L 82.376268 214.159059 
L 90.919809 221.116235 
L 99.463349 237.018353 
L 108.00689 225.091765 
L 116.550431 204.220235 
L 125.093971 217.140706 
L 133.637512 233.042824 
L 142.181053 231.055059 
L 150.724593 238.012235 
L 159.268134 213.165176 
L 167.811675 204.220235 
L 176.355215 218.134588 
L 184.898756 227.079529 
L 193.442297 226.085647 
L 201.985837 217.140706 
L 210.529378 221.116235 
L 219.072919 213.165176 
L 227.616459 237.018353 
L 236.16 233.042824 
L 244.703541 226.085647 
L 253.247081 238.012235 
L 261.790622 221.116235 
L 270.334163 226.085647 
L 278.877703 219.128471 
L 287.421244 173.409882 
L 295.964785 219.128471 
L 304.508325 189.312 
L 313.051866 186.330353 
L 321.595407 186.330353 
L 330.138947 209.189647 
L 338.682488 202.232471 
L 347.226029 194.281412 
L 355.769569 194.281412 
L 364.31311 212.171294 
L 372.856651 198.256941 
L 381.400191 221.116235 
L 389.943732 222.110118 
L 398.487273 208.195765 
L 398.487273 200.244706 
L 398.487273 200.244706 
L 389.943732 212.171294 
L 381.400191 212.171294 
L 372.856651 188.318118 
L 364.31311 199.250824 
L 355.769569 183.348706 
L 347.226029 186.330353 
L 338.682488 192.293647 
L 330.138947 202.232471 
L 321.595407 175.397647 
L 313.051866 174.403765 
L 304.508325 178.379294 
L 295.964785 211.177412 
L 287.421244 164.464941 
L 278.877703 206.208 
L 270.334163 214.159059 
L 261.790622 209.189647 
L 253.247081 228.073412 
L 244.703541 213.165176 
L 236.16 216.146824 
L 227.616459 230.061176 
L 219.072919 205.214118 
L 210.529378 209.189647 
L 201.985837 205.214118 
L 193.442297 216.146824 
L 184.898756 218.134588 
L 176.355215 207.201882 
L 167.811675 194.281412 
L 159.268134 205.214118 
L 150.724593 230.061176 
L 142.181053 222.110118 
L 133.637512 221.116235 
L 125.093971 207.201882 
L 116.550431 193.287529 
L 108.00689 216.146824 
L 99.463349 225.091765 
L 90.919809 212.171294 
L 82.376268 210.183529 
L 73.832727 109.801412 
z
" clip-path="url(#p6341fa1222)" style="fill: #e377c2"/>
   </g>
   <g id="PolyCollection_8">
    <path d="M 73.832727 108.807529 
L 73.832727 109.801412 
L 82.376268 210.183529 
L 90.919809 212.171294 
L 99.463349 225.091765 
L 108.00689 216.146824 
L 116.550431 193.287529 
L 125.093971 207.201882 
L 133.637512 221.116235 
L 142.181053 222.110118 
L 150.724593 230.061176 
L 159.268134 205.214118 
L 167.811675 194.281412 
L 176.355215 207.201882 
L 184.898756 218.134588 
L 193.442297 216.146824 
L 201.985837 205.214118 
L 210.529378 209.189647 
L 219.072919 205.214118 
L 227.616459 230.061176 
L 236.16 216.146824 
L 244.703541 213.165176 
L 253.247081 228.073412 
L 261.790622 209.189647 
L 270.334163 214.159059 
L 278.877703 206.208 
L 287.421244 164.464941 
L 295.964785 211.177412 
L 304.508325 178.379294 
L 313.051866 174.403765 
L 321.595407 175.397647 
L 330.138947 202.232471 
L 338.682488 192.293647 
L 347.226029 186.330353 
L 355.769569 183.348706 
L 364.31311 199.250824 
L 372.856651 188.318118 
L 381.400191 212.171294 
L 389.943732 212.171294 
L 398.487273 200.244706 
L 398.487273 198.256941 
L 398.487273 198.256941 
L 389.943732 210.183529 
L 381.400191 209.189647 
L 372.856651 186.330353 
L 364.31311 196.269176 
L 355.769569 181.360941 
L 347.226029 183.348706 
L 338.682488 190.305882 
L 330.138947 200.244706 
L 321.595407 172.416 
L 313.051866 172.416 
L 304.508325 176.391529 
L 295.964785 208.195765 
L 287.421244 162.477176 
L 278.877703 204.220235 
L 270.334163 212.171294 
L 261.790622 206.208 
L 253.247081 226.085647 
L 244.703541 210.183529 
L 236.16 214.159059 
L 227.616459 227.079529 
L 219.072919 204.220235 
L 210.529378 206.208 
L 201.985837 203.226353 
L 193.442297 213.165176 
L 184.898756 216.146824 
L 176.355215 205.214118 
L 167.811675 192.293647 
L 159.268134 203.226353 
L 150.724593 228.073412 
L 142.181053 220.122353 
L 133.637512 218.134588 
L 125.093971 203.226353 
L 116.550431 190.305882 
L 108.00689 214.159059 
L 99.463349 222.110118 
L 90.919809 208.195765 
L 82.376268 207.201882 
L 73.832727 108.807529 
z
" clip-path="url(#p6341fa1222)" style="fill: #7f7f7f"/>
   </g>
   <g id="PolyCollection_9">
    <path d="M 73.832727 107.813647 
L 73.832727 108.807529 
L 82.376268 207.201882 
L 90.919809 208.195765 
L 99.463349 222.110118 
L 108.00689 214.159059 
L 116.550431 190.305882 
L 125.093971 203.226353 
L 133.637512 218.134588 
L 142.181053 220.122353 
L 150.724593 228.073412 
L 159.268134 203.226353 
L 167.811675 192.293647 
L 176.355215 205.214118 
L 184.898756 216.146824 
L 193.442297 213.165176 
L 201.985837 203.226353 
L 210.529378 206.208 
L 219.072919 204.220235 
L 227.616459 227.079529 
L 236.16 214.159059 
L 244.703541 210.183529 
L 253.247081 226.085647 
L 261.790622 206.208 
L 270.334163 212.171294 
L 278.877703 204.220235 
L 287.421244 162.477176 
L 295.964785 208.195765 
L 304.508325 176.391529 
L 313.051866 172.416 
L 321.595407 172.416 
L 330.138947 200.244706 
L 338.682488 190.305882 
L 347.226029 183.348706 
L 355.769569 181.360941 
L 364.31311 196.269176 
L 372.856651 186.330353 
L 381.400191 209.189647 
L 389.943732 210.183529 
L 398.487273 198.256941 
L 398.487273 196.269176 
L 398.487273 196.269176 
L 389.943732 207.201882 
L 381.400191 207.201882 
L 372.856651 183.348706 
L 364.31311 195.275294 
L 355.769569 178.379294 
L 347.226029 181.360941 
L 338.682488 188.318118 
L 330.138947 197.263059 
L 321.595407 170.428235 
L 313.051866 170.428235 
L 304.508325 174.403765 
L 295.964785 205.214118 
L 287.421244 160.489412 
L 278.877703 202.232471 
L 270.334163 209.189647 
L 261.790622 203.226353 
L 253.247081 224.097882 
L 244.703541 208.195765 
L 236.16 212.171294 
L 227.616459 224.097882 
L 219.072919 202.232471 
L 210.529378 203.226353 
L 201.985837 201.238588 
L 193.442297 209.189647 
L 184.898756 213.165176 
L 176.355215 203.226353 
L 167.811675 190.305882 
L 159.268134 201.238588 
L 150.724593 225.091765 
L 142.181053 218.134588 
L 133.637512 216.146824 
L 125.093971 201.238588 
L 116.550431 188.318118 
L 108.00689 211.177412 
L 99.463349 219.128471 
L 90.919809 205.214118 
L 82.376268 205.214118 
L 73.832727 107.813647 
z
" clip-path="url(#p6341fa1222)" style="fill: #bcbd22"/>
   </g>
   <g id="PolyCollection_10">
    <path d="M 73.832727 102.844235 
L 73.832727 107.813647 
L 82.376268 205.214118 
L 90.919809 205.214118 
L 99.463349 219.128471 
L 108.00689 211.177412 
L 116.550431 188.318118 
L 125.093971 201.238588 
L 133.637512 216.146824 
L 142.181053 218.134588 
L 150.724593 225.091765 
L 159.268134 201.238588 
L 167.811675 190.305882 
L 176.355215 203.226353 
L 184.898756 213.165176 
L 193.442297 209.189647 
L 201.985837 201.238588 
L 210.529378 203.226353 
L 219.072919 202.232471 
L 227.616459 224.097882 
L 236.16 212.171294 
L 244.703541 208.195765 
L 253.247081 224.097882 
L 261.790622 203.226353 
L 270.334163 209.189647 
L 278.877703 202.232471 
L 287.421244 160.489412 
L 295.964785 205.214118 
L 304.508325 174.403765 
L 313.051866 170.428235 
L 321.595407 170.428235 
L 330.138947 197.263059 
L 338.682488 188.318118 
L 347.226029 181.360941 
L 355.769569 178.379294 
L 364.31311 195.275294 
L 372.856651 183.348706 
L 381.400191 207.201882 
L 389.943732 207.201882 
L 398.487273 196.269176 
L 398.487273 174.403765 
L 398.487273 174.403765 
L 389.943732 194.281412 
L 381.400191 188.318118 
L 372.856651 176.391529 
L 364.31311 176.391529 
L 355.769569 158.501647 
L 347.226029 175.397647 
L 338.682488 170.428235 
L 330.138947 180.367059 
L 321.595407 155.52 
L 313.051866 158.501647 
L 304.508325 162.477176 
L 295.964785 159.495529 
L 287.421244 141.605647 
L 278.877703 194.281412 
L 270.334163 181.360941 
L 261.790622 193.287529 
L 253.247081 208.195765 
L 244.703541 191.299765 
L 236.16 188.318118 
L 227.616459 205.214118 
L 219.072919 180.367059 
L 210.529378 181.360941 
L 201.985837 182.354824 
L 193.442297 198.256941 
L 184.898756 180.367059 
L 176.355215 176.391529 
L 167.811675 166.452706 
L 159.268134 184.342588 
L 150.724593 174.403765 
L 142.181053 192.293647 
L 133.637512 193.287529 
L 125.093971 183.348706 
L 116.550431 166.452706 
L 108.00689 190.305882 
L 99.463349 190.305882 
L 90.919809 199.250824 
L 82.376268 194.281412 
L 73.832727 102.844235 
z
" clip-path="url(#p6341fa1222)" style="fill: #17becf"/>
   </g>
   <g id="PolyCollection_11">
    <path d="M 73.832727 87.936 
L 73.832727 102.844235 
L 82.376268 194.281412 
L 90.919809 199.250824 
L 99.463349 190.305882 
L 108.00689 190.305882 
L 116.550431 166.452706 
L 125.093971 183.348706 
L 133.637512 193.287529 
L 142.181053 192.293647 
L 150.724593 174.403765 
L 159.268134 184.342588 
L 167.811675 166.452706 
L 176.355215 176.391529 
L 184.898756 180.367059 
L 193.442297 198.256941 
L 201.985837 182.354824 
L 210.529378 181.360941 
L 219.072919 180.367059 
L 227.616459 205.214118 
L 236.16 188.318118 
L 244.703541 191.299765 
L 253.247081 208.195765 
L 261.790622 193.287529 
L 270.334163 181.360941 
L 278.877703 194.281412 
L 287.421244 141.605647 
L 295.964785 159.495529 
L 304.508325 162.477176 
L 313.051866 158.501647 
L 321.595407 155.52 
L 330.138947 180.367059 
L 338.682488 170.428235 
L 347.226029 175.397647 
L 355.769569 158.501647 
L 364.31311 176.391529 
L 372.856651 176.391529 
L 381.400191 188.318118 
L 389.943732 194.281412 
L 398.487273 174.403765 
L 398.487273 174.403765 
L 398.487273 174.403765 
L 389.943732 194.281412 
L 381.400191 188.318118 
L 372.856651 176.391529 
L 364.31311 176.391529 
L 355.769569 158.501647 
L 347.226029 175.397647 
L 338.682488 170.428235 
L 330.138947 180.367059 
L 321.595407 155.52 
L 313.051866 158.501647 
L 304.508325 162.477176 
L 295.964785 159.495529 
L 287.421244 141.605647 
L 278.877703 194.281412 
L 270.334163 181.360941 
L 261.790622 193.287529 
L 253.247081 198.256941 
L 244.703541 178.379294 
L 236.16 177.385412 
L 227.616459 194.281412 
L 219.072919 173.409882 
L 210.529378 176.391529 
L 201.985837 174.403765 
L 193.442297 192.293647 
L 184.898756 176.391529 
L 176.355215 173.409882 
L 167.811675 163.471059 
L 159.268134 181.360941 
L 150.724593 169.434353 
L 142.181053 182.354824 
L 133.637512 172.416 
L 125.093971 170.428235 
L 116.550431 149.556706 
L 108.00689 167.446588 
L 99.463349 178.379294 
L 90.919809 186.330353 
L 82.376268 147.568941 
L 73.832727 87.936 
z
" clip-path="url(#p6341fa1222)" style="fill: #1f77b4"/>
   </g>
   <g id="PolyCollection_12">
    <path d="M 73.832727 84.954353 
L 73.832727 87.936 
L 82.376268 147.568941 
L 90.919809 186.330353 
L 99.463349 178.379294 
L 108.00689 167.446588 
L 116.550431 149.556706 
L 125.093971 170.428235 
L 133.637512 172.416 
L 142.181053 182.354824 
L 150.724593 169.434353 
L 159.268134 181.360941 
L 167.811675 163.471059 
L 176.355215 173.409882 
L 184.898756 176.391529 
L 193.442297 192.293647 
L 201.985837 174.403765 
L 210.529378 176.391529 
L 219.072919 173.409882 
L 227.616459 194.281412 
L 236.16 177.385412 
L 244.703541 178.379294 
L 253.247081 198.256941 
L 261.790622 193.287529 
L 270.334163 181.360941 
L 278.877703 194.281412 
L 287.421244 141.605647 
L 295.964785 159.495529 
L 304.508325 162.477176 
L 313.051866 158.501647 
L 321.595407 155.52 
L 330.138947 180.367059 
L 338.682488 170.428235 
L 347.226029 175.397647 
L 355.769569 158.501647 
L 364.31311 176.391529 
L 372.856651 176.391529 
L 381.400191 188.318118 
L 389.943732 194.281412 
L 398.487273 174.403765 
L 398.487273 174.403765 
L 398.487273 174.403765 
L 389.943732 194.281412 
L 381.400191 188.318118 
L 372.856651 176.391529 
L 364.31311 176.391529 
L 355.769569 158.501647 
L 347.226029 175.397647 
L 338.682488 170.428235 
L 330.138947 180.367059 
L 321.595407 155.52 
L 313.051866 158.501647 
L 304.508325 162.477176 
L 295.964785 159.495529 
L 287.421244 141.605647 
L 278.877703 194.281412 
L 270.334163 181.360941 
L 261.790622 193.287529 
L 253.247081 198.256941 
L 244.703541 175.397647 
L 236.16 173.409882 
L 227.616459 191.299765 
L 219.072919 169.434353 
L 210.529378 171.422118 
L 201.985837 171.422118 
L 193.442297 188.318118 
L 184.898756 173.409882 
L 176.355215 168.440471 
L 167.811675 160.489412 
L 159.268134 177.385412 
L 150.724593 166.452706 
L 142.181053 179.373176 
L 133.637512 168.440471 
L 125.093971 167.446588 
L 116.550431 147.568941 
L 108.00689 162.477176 
L 99.463349 172.416 
L 90.919809 178.379294 
L 82.376268 138.624 
L 73.832727 84.954353 
z
" clip-path="url(#p6341fa1222)" style="fill: #ff7f0e"/>
   </g>
   <g id="PolyCollection_13">
    <path d="M 73.832727 82.966588 
L 73.832727 84.954353 
L 82.376268 138.624 
L 90.919809 178.379294 
L 99.463349 172.416 
L 108.00689 162.477176 
L 116.550431 147.568941 
L 125.093971 167.446588 
L 133.637512 168.440471 
L 142.181053 179.373176 
L 150.724593 166.452706 
L 159.268134 177.385412 
L 167.811675 160.489412 
L 176.355215 168.440471 
L 184.898756 173.409882 
L 193.442297 188.318118 
L 201.985837 171.422118 
L 210.529378 171.422118 
L 219.072919 169.434353 
L 227.616459 191.299765 
L 236.16 173.409882 
L 244.703541 175.397647 
L 253.247081 198.256941 
L 261.790622 193.287529 
L 270.334163 181.360941 
L 278.877703 194.281412 
L 287.421244 141.605647 
L 295.964785 159.495529 
L 304.508325 162.477176 
L 313.051866 158.501647 
L 321.595407 155.52 
L 330.138947 180.367059 
L 338.682488 170.428235 
L 347.226029 175.397647 
L 355.769569 158.501647 
L 364.31311 176.391529 
L 372.856651 176.391529 
L 381.400191 188.318118 
L 389.943732 194.281412 
L 398.487273 174.403765 
L 398.487273 174.403765 
L 398.487273 174.403765 
L 389.943732 194.281412 
L 381.400191 188.318118 
L 372.856651 176.391529 
L 364.31311 176.391529 
L 355.769569 158.501647 
L 347.226029 175.397647 
L 338.682488 170.428235 
L 330.138947 180.367059 
L 321.595407 155.52 
L 313.051866 158.501647 
L 304.508325 162.477176 
L 295.964785 159.495529 
L 287.421244 141.605647 
L 278.877703 194.281412 
L 270.334163 181.360941 
L 261.790622 193.287529 
L 253.247081 195.275294 
L 244.703541 173.409882 
L 236.16 170.428235 
L 227.616459 189.312 
L 219.072919 167.446588 
L 210.529378 169.434353 
L 201.985837 169.434353 
L 193.442297 186.330353 
L 184.898756 171.422118 
L 176.355215 165.458824 
L 167.811675 156.513882 
L 159.268134 174.403765 
L 150.724593 162.477176 
L 142.181053 176.391529 
L 133.637512 166.452706 
L 125.093971 165.458824 
L 116.550431 144.587294 
L 108.00689 160.489412 
L 99.463349 169.434353 
L 90.919809 174.403765 
L 82.376268 133.654588 
L 73.832727 82.966588 
z
" clip-path="url(#p6341fa1222)" style="fill: #2ca02c"/>
   </g>
   <g id="PolyCollection_14">
    <path d="M 73.832727 81.972706 
L 73.832727 82.966588 
L 82.376268 133.654588 
L 90.919809 174.403765 
L 99.463349 169.434353 
L 108.00689 160.489412 
L 116.550431 144.587294 
L 125.093971 165.458824 
L 133.637512 166.452706 
L 142.181053 176.391529 
L 150.724593 162.477176 
L 159.268134 174.403765 
L 167.811675 156.513882 
L 176.355215 165.458824 
L 184.898756 171.422118 
L 193.442297 186.330353 
L 201.985837 169.434353 
L 210.529378 169.434353 
L 219.072919 167.446588 
L 227.616459 189.312 
L 236.16 170.428235 
L 244.703541 173.409882 
L 253.247081 195.275294 
L 261.790622 193.287529 
L 270.334163 181.360941 
L 278.877703 194.281412 
L 287.421244 141.605647 
L 295.964785 159.495529 
L 304.508325 162.477176 
L 313.051866 158.501647 
L 321.595407 155.52 
L 330.138947 180.367059 
L 338.682488 170.428235 
L 347.226029 175.397647 
L 355.769569 158.501647 
L 364.31311 176.391529 
L 372.856651 176.391529 
L 381.400191 188.318118 
L 389.943732 194.281412 
L 398.487273 174.403765 
L 398.487273 174.403765 
L 398.487273 174.403765 
L 389.943732 194.281412 
L 381.400191 188.318118 
L 372.856651 176.391529 
L 364.31311 176.391529 
L 355.769569 158.501647 
L 347.226029 175.397647 
L 338.682488 170.428235 
L 330.138947 180.367059 
L 321.595407 152.538353 
L 313.051866 156.513882 
L 304.508325 159.495529 
L 295.964785 157.507765 
L 287.421244 139.617882 
L 278.877703 192.293647 
L 270.334163 178.379294 
L 261.790622 191.299765 
L 253.247081 193.287529 
L 244.703541 171.422118 
L 236.16 168.440471 
L 227.616459 186.330353 
L 219.072919 165.458824 
L 210.529378 167.446588 
L 201.985837 167.446588 
L 193.442297 184.342588 
L 184.898756 169.434353 
L 176.355215 162.477176 
L 167.811675 154.526118 
L 159.268134 171.422118 
L 150.724593 159.495529 
L 142.181053 174.403765 
L 133.637512 163.471059 
L 125.093971 162.477176 
L 116.550431 142.599529 
L 108.00689 157.507765 
L 99.463349 167.446588 
L 90.919809 171.422118 
L 82.376268 131.666824 
L 73.832727 81.972706 
z
" clip-path="url(#p6341fa1222)" style="fill: #d62728"/>
   </g>
   <g id="PolyCollection_15">
    <path d="M 73.832727 79.984941 
L 73.832727 81.972706 
L 82.376268 131.666824 
L 90.919809 171.422118 
L 99.463349 167.446588 
L 108.00689 157.507765 
L 116.550431 142.599529 
L 125.093971 162.477176 
L 133.637512 163.471059 
L 142.181053 174.403765 
L 150.724593 159.495529 
L 159.268134 171.422118 
L 167.811675 154.526118 
L 176.355215 162.477176 
L 184.898756 169.434353 
L 193.442297 184.342588 
L 201.985837 167.446588 
L 210.529378 167.446588 
L 219.072919 165.458824 
L 227.616459 186.330353 
L 236.16 168.440471 
L 244.703541 171.422118 
L 253.247081 193.287529 
L 261.790622 191.299765 
L 270.334163 178.379294 
L 278.877703 192.293647 
L 287.421244 139.617882 
L 295.964785 157.507765 
L 304.508325 159.495529 
L 313.051866 156.513882 
L 321.595407 152.538353 
L 330.138947 180.367059 
L 338.682488 170.428235 
L 347.226029 175.397647 
L 355.769569 158.501647 
L 364.31311 176.391529 
L 372.856651 176.391529 
L 381.400191 188.318118 
L 389.943732 194.281412 
L 398.487273 174.403765 
L 398.487273 154.526118 
L 398.487273 154.526118 
L 389.943732 171.422118 
L 381.400191 165.458824 
L 372.856651 146.575059 
L 364.31311 153.532235 
L 355.769569 136.636235 
L 347.226029 156.513882 
L 338.682488 152.538353 
L 330.138947 175.397647 
L 321.595407 145.581176 
L 313.051866 152.538353 
L 304.508325 139.617882 
L 295.964785 151.544471 
L 287.421244 126.697412 
L 278.877703 173.409882 
L 270.334163 151.544471 
L 261.790622 161.483294 
L 253.247081 181.360941 
L 244.703541 167.446588 
L 236.16 166.452706 
L 227.616459 183.348706 
L 219.072919 164.464941 
L 210.529378 164.464941 
L 201.985837 166.452706 
L 193.442297 180.367059 
L 184.898756 166.452706 
L 176.355215 160.489412 
L 167.811675 151.544471 
L 159.268134 166.452706 
L 150.724593 155.52 
L 142.181053 171.422118 
L 133.637512 161.483294 
L 125.093971 158.501647 
L 116.550431 139.617882 
L 108.00689 155.52 
L 99.463349 165.458824 
L 90.919809 168.440471 
L 82.376268 130.672941 
L 73.832727 79.984941 
z
" clip-path="url(#p6341fa1222)" style="fill: #9467bd"/>
   </g>
   <g id="PolyCollection_16">
    <path d="M 73.832727 77.997176 
L 73.832727 79.984941 
L 82.376268 130.672941 
L 90.919809 168.440471 
L 99.463349 165.458824 
L 108.00689 155.52 
L 116.550431 139.617882 
L 125.093971 158.501647 
L 133.637512 161.483294 
L 142.181053 171.422118 
L 150.724593 155.52 
L 159.268134 166.452706 
L 167.811675 151.544471 
L 176.355215 160.489412 
L 184.898756 166.452706 
L 193.442297 180.367059 
L 201.985837 166.452706 
L 210.529378 164.464941 
L 219.072919 164.464941 
L 227.616459 183.348706 
L 236.16 166.452706 
L 244.703541 167.446588 
L 253.247081 181.360941 
L 261.790622 161.483294 
L 270.334163 151.544471 
L 278.877703 173.409882 
L 287.421244 126.697412 
L 295.964785 151.544471 
L 304.508325 139.617882 
L 313.051866 152.538353 
L 321.595407 145.581176 
L 330.138947 175.397647 
L 338.682488 152.538353 
L 347.226029 156.513882 
L 355.769569 136.636235 
L 364.31311 153.532235 
L 372.856651 146.575059 
L 381.400191 165.458824 
L 389.943732 171.422118 
L 398.487273 154.526118 
L 398.487273 154.526118 
L 398.487273 154.526118 
L 389.943732 171.422118 
L 381.400191 165.458824 
L 372.856651 146.575059 
L 364.31311 141.605647 
L 355.769569 113.776941 
L 347.226029 137.630118 
L 338.682488 135.642353 
L 330.138947 138.624 
L 321.595407 122.721882 
L 313.051866 133.654588 
L 304.508325 123.715765 
L 295.964785 142.599529 
L 287.421244 119.740235 
L 278.877703 158.501647 
L 270.334163 144.587294 
L 261.790622 149.556706 
L 253.247081 158.501647 
L 244.703541 128.685176 
L 236.16 124.709647 
L 227.616459 130.672941 
L 219.072919 131.666824 
L 210.529378 130.672941 
L 201.985837 153.532235 
L 193.442297 146.575059 
L 184.898756 143.593412 
L 176.355215 130.672941 
L 167.811675 141.605647 
L 159.268134 145.581176 
L 150.724593 136.636235 
L 142.181053 148.562824 
L 133.637512 140.611765 
L 125.093971 140.611765 
L 116.550431 135.642353 
L 108.00689 142.599529 
L 99.463349 155.52 
L 90.919809 165.458824 
L 82.376268 126.697412 
L 73.832727 77.997176 
z
" clip-path="url(#p6341fa1222)" style="fill: #8c564b"/>
   </g>
   <g id="PolyCollection_17">
    <path d="M 73.832727 75.015529 
L 73.832727 77.997176 
L 82.376268 126.697412 
L 90.919809 165.458824 
L 99.463349 155.52 
L 108.00689 142.599529 
L 116.550431 135.642353 
L 125.093971 140.611765 
L 133.637512 140.611765 
L 142.181053 148.562824 
L 150.724593 136.636235 
L 159.268134 145.581176 
L 167.811675 141.605647 
L 176.355215 130.672941 
L 184.898756 143.593412 
L 193.442297 146.575059 
L 201.985837 153.532235 
L 210.529378 130.672941 
L 219.072919 131.666824 
L 227.616459 130.672941 
L 236.16 124.709647 
L 244.703541 128.685176 
L 253.247081 158.501647 
L 261.790622 149.556706 
L 270.334163 144.587294 
L 278.877703 158.501647 
L 287.421244 119.740235 
L 295.964785 142.599529 
L 304.508325 123.715765 
L 313.051866 133.654588 
L 321.595407 122.721882 
L 330.138947 138.624 
L 338.682488 135.642353 
L 347.226029 137.630118 
L 355.769569 113.776941 
L 364.31311 141.605647 
L 372.856651 146.575059 
L 381.400191 165.458824 
L 389.943732 171.422118 
L 398.487273 154.526118 
L 398.487273 136.636235 
L 398.487273 136.636235 
L 389.943732 152.538353 
L 381.400191 141.605647 
L 372.856651 129.679059 
L 364.31311 122.721882 
L 355.769569 96.880941 
L 347.226029 121.728 
L 338.682488 112.783059 
L 330.138947 108.807529 
L 321.595407 102.844235 
L 313.051866 121.728 
L 304.508325 113.776941 
L 295.964785 122.721882 
L 287.421244 105.825882 
L 278.877703 136.636235 
L 270.334163 123.715765 
L 261.790622 131.666824 
L 253.247081 139.617882 
L 244.703541 107.813647 
L 236.16 105.825882 
L 227.616459 113.776941 
L 219.072919 120.734118 
L 210.529378 121.728 
L 201.985837 140.611765 
L 193.442297 133.654588 
L 184.898756 126.697412 
L 176.355215 113.776941 
L 167.811675 121.728 
L 159.268134 125.703529 
L 150.724593 119.740235 
L 142.181053 126.697412 
L 133.637512 119.740235 
L 125.093971 117.752471 
L 116.550431 119.740235 
L 108.00689 125.703529 
L 99.463349 142.599529 
L 90.919809 153.532235 
L 82.376268 120.734118 
L 73.832727 75.015529 
z
" clip-path="url(#p6341fa1222)" style="fill: #e377c2"/>
   </g>
   <g id="PolyCollection_18">
    <path d="M 73.832727 69.052235 
L 73.832727 75.015529 
L 82.376268 120.734118 
L 90.919809 153.532235 
L 99.463349 142.599529 
L 108.00689 125.703529 
L 116.550431 119.740235 
L 125.093971 117.752471 
L 133.637512 119.740235 
L 142.181053 126.697412 
L 150.724593 119.740235 
L 159.268134 125.703529 
L 167.811675 121.728 
L 176.355215 113.776941 
L 184.898756 126.697412 
L 193.442297 133.654588 
L 201.985837 140.611765 
L 210.529378 121.728 
L 219.072919 120.734118 
L 227.616459 113.776941 
L 236.16 105.825882 
L 244.703541 107.813647 
L 253.247081 139.617882 
L 261.790622 131.666824 
L 270.334163 123.715765 
L 278.877703 136.636235 
L 287.421244 105.825882 
L 295.964785 122.721882 
L 304.508325 113.776941 
L 313.051866 121.728 
L 321.595407 102.844235 
L 330.138947 108.807529 
L 338.682488 112.783059 
L 347.226029 121.728 
L 355.769569 96.880941 
L 364.31311 122.721882 
L 372.856651 129.679059 
L 381.400191 141.605647 
L 389.943732 152.538353 
L 398.487273 136.636235 
L 398.487273 118.746353 
L 398.487273 118.746353 
L 389.943732 133.654588 
L 381.400191 118.746353 
L 372.856651 105.825882 
L 364.31311 106.819765 
L 355.769569 87.936 
L 347.226029 107.813647 
L 338.682488 102.844235 
L 330.138947 99.862588 
L 321.595407 92.905412 
L 313.051866 98.868706 
L 304.508325 97.874824 
L 295.964785 97.874824 
L 287.421244 95.887059 
L 278.877703 129.679059 
L 270.334163 118.746353 
L 261.790622 102.844235 
L 253.247081 104.832 
L 244.703541 99.862588 
L 236.16 92.905412 
L 227.616459 97.874824 
L 219.072919 98.868706 
L 210.529378 88.929882 
L 201.985837 109.801412 
L 193.442297 122.721882 
L 184.898756 113.776941 
L 176.355215 105.825882 
L 167.811675 103.838118 
L 159.268134 107.813647 
L 150.724593 96.880941 
L 142.181053 111.789176 
L 133.637512 105.825882 
L 125.093971 91.911529 
L 116.550431 97.874824 
L 108.00689 107.813647 
L 99.463349 116.758588 
L 90.919809 123.715765 
L 82.376268 105.825882 
L 73.832727 69.052235 
z
" clip-path="url(#p6341fa1222)" style="fill: #7f7f7f"/>
   </g>
   <g id="PolyCollection_19">
    <path d="M 73.832727 68.058353 
L 73.832727 69.052235 
L 82.376268 105.825882 
L 90.919809 123.715765 
L 99.463349 116.758588 
L 108.00689 107.813647 
L 116.550431 97.874824 
L 125.093971 91.911529 
L 133.637512 105.825882 
L 142.181053 111.789176 
L 150.724593 96.880941 
L 159.268134 107.813647 
L 167.811675 103.838118 
L 176.355215 105.825882 
L 184.898756 113.776941 
L 193.442297 122.721882 
L 201.985837 109.801412 
L 210.529378 88.929882 
L 219.072919 98.868706 
L 227.616459 97.874824 
L 236.16 92.905412 
L 244.703541 99.862588 
L 253.247081 104.832 
L 261.790622 102.844235 
L 270.334163 118.746353 
L 278.877703 129.679059 
L 287.421244 95.887059 
L 295.964785 97.874824 
L 304.508325 97.874824 
L 313.051866 98.868706 
L 321.595407 92.905412 
L 330.138947 99.862588 
L 338.682488 102.844235 
L 347.226029 107.813647 
L 355.769569 87.936 
L 364.31311 106.819765 
L 372.856651 105.825882 
L 381.400191 118.746353 
L 389.943732 133.654588 
L 398.487273 118.746353 
L 398.487273 107.813647 
L 398.487273 107.813647 
L 389.943732 122.721882 
L 381.400191 108.807529 
L 372.856651 96.880941 
L 364.31311 95.887059 
L 355.769569 78.991059 
L 347.226029 93.899294 
L 338.682488 90.917647 
L 330.138947 87.936 
L 321.595407 80.978824 
L 313.051866 88.929882 
L 304.508325 87.936 
L 295.964785 85.948235 
L 287.421244 82.966588 
L 278.877703 114.770824 
L 270.334163 102.844235 
L 261.790622 88.929882 
L 253.247081 92.905412 
L 244.703541 85.948235 
L 236.16 83.960471 
L 227.616459 87.936 
L 219.072919 85.948235 
L 210.529378 80.978824 
L 201.985837 100.856471 
L 193.442297 112.783059 
L 184.898756 101.850353 
L 176.355215 94.893176 
L 167.811675 93.899294 
L 159.268134 98.868706 
L 150.724593 88.929882 
L 142.181053 102.844235 
L 133.637512 95.887059 
L 125.093971 82.966588 
L 116.550431 91.911529 
L 108.00689 101.850353 
L 99.463349 110.795294 
L 90.919809 118.746353 
L 82.376268 102.844235 
L 73.832727 68.058353 
z
" clip-path="url(#p6341fa1222)" style="fill: #bcbd22"/>
   </g>
   <g id="PolyCollection_20">
    <path d="M 73.832727 67.064471 
L 73.832727 68.058353 
L 82.376268 102.844235 
L 90.919809 118.746353 
L 99.463349 110.795294 
L 108.00689 101.850353 
L 116.550431 91.911529 
L 125.093971 82.966588 
L 133.637512 95.887059 
L 142.181053 102.844235 
L 150.724593 88.929882 
L 159.268134 98.868706 
L 167.811675 93.899294 
L 176.355215 94.893176 
L 184.898756 101.850353 
L 193.442297 112.783059 
L 201.985837 100.856471 
L 210.529378 80.978824 
L 219.072919 85.948235 
L 227.616459 87.936 
L 236.16 83.960471 
L 244.703541 85.948235 
L 253.247081 92.905412 
L 261.790622 88.929882 
L 270.334163 102.844235 
L 278.877703 114.770824 
L 287.421244 82.966588 
L 295.964785 85.948235 
L 304.508325 87.936 
L 313.051866 88.929882 
L 321.595407 80.978824 
L 330.138947 87.936 
L 338.682488 90.917647 
L 347.226029 93.899294 
L 355.769569 78.991059 
L 364.31311 95.887059 
L 372.856651 96.880941 
L 381.400191 108.807529 
L 389.943732 122.721882 
L 398.487273 107.813647 
L 398.487273 107.813647 
L 398.487273 107.813647 
L 389.943732 122.721882 
L 381.400191 108.807529 
L 372.856651 96.880941 
L 364.31311 95.887059 
L 355.769569 78.991059 
L 347.226029 93.899294 
L 338.682488 77.997176 
L 330.138947 72.033882 
L 321.595407 65.076706 
L 313.051866 75.015529 
L 304.508325 75.015529 
L 295.964785 73.027765 
L 287.421244 74.021647 
L 278.877703 103.838118 
L 270.334163 92.905412 
L 261.790622 79.984941 
L 253.247081 84.954353 
L 244.703541 76.009412 
L 236.16 75.015529 
L 227.616459 75.015529 
L 219.072919 76.009412 
L 210.529378 73.027765 
L 201.985837 90.917647 
L 193.442297 100.856471 
L 184.898756 89.923765 
L 176.355215 82.966588 
L 167.811675 81.972706 
L 159.268134 87.936 
L 150.724593 81.972706 
L 142.181053 88.929882 
L 133.637512 84.954353 
L 125.093971 74.021647 
L 116.550431 81.972706 
L 108.00689 93.899294 
L 99.463349 104.832 
L 90.919809 111.789176 
L 82.376268 99.862588 
L 73.832727 67.064471 
z
" clip-path="url(#p6341fa1222)" style="fill: #17becf"/>
   </g>
   <g id="PolyCollection_21">
    <path d="M 73.832727 66.070588 
L 73.832727 67.064471 
L 82.376268 99.862588 
L 90.919809 111.789176 
L 99.463349 104.832 
L 108.00689 93.899294 
L 116.550431 81.972706 
L 125.093971 74.021647 
L 133.637512 84.954353 
L 142.181053 88.929882 
L 150.724593 81.972706 
L 159.268134 87.936 
L 167.811675 81.972706 
L 176.355215 82.966588 
L 184.898756 89.923765 
L 193.442297 100.856471 
L 201.985837 90.917647 
L 210.529378 73.027765 
L 219.072919 76.009412 
L 227.616459 75.015529 
L 236.16 75.015529 
L 244.703541 76.009412 
L 253.247081 84.954353 
L 261.790622 79.984941 
L 270.334163 92.905412 
L 278.877703 103.838118 
L 287.421244 74.021647 
L 295.964785 73.027765 
L 304.508325 75.015529 
L 313.051866 75.015529 
L 321.595407 65.076706 
L 330.138947 72.033882 
L 338.682488 77.997176 
L 347.226029 93.899294 
L 355.769569 78.991059 
L 364.31311 95.887059 
L 372.856651 96.880941 
L 381.400191 108.807529 
L 389.943732 122.721882 
L 398.487273 107.813647 
L 398.487273 107.813647 
L 398.487273 107.813647 
L 389.943732 122.721882 
L 381.400191 108.807529 
L 372.856651 96.880941 
L 364.31311 95.887059 
L 355.769569 78.991059 
L 347.226029 93.899294 
L 338.682488 77.997176 
L 330.138947 72.033882 
L 321.595407 65.076706 
L 313.051866 75.015529 
L 304.508325 75.015529 
L 295.964785 73.027765 
L 287.421244 74.021647 
L 278.877703 103.838118 
L 270.334163 92.905412 
L 261.790622 77.997176 
L 253.247081 81.972706 
L 244.703541 74.021647 
L 236.16 73.027765 
L 227.616459 73.027765 
L 219.072919 74.021647 
L 210.529378 71.04 
L 201.985837 88.929882 
L 193.442297 97.874824 
L 184.898756 87.936 
L 176.355215 79.984941 
L 167.811675 79.984941 
L 159.268134 84.954353 
L 150.724593 79.984941 
L 142.181053 86.942118 
L 133.637512 81.972706 
L 125.093971 72.033882 
L 116.550431 77.997176 
L 108.00689 90.917647 
L 99.463349 100.856471 
L 90.919809 108.807529 
L 82.376268 95.887059 
L 73.832727 66.070588 
z
" clip-path="url(#p6341fa1222)" style="fill: #1f77b4"/>
   </g>
   <g id="PolyCollection_22">
    <path d="M 73.832727 65.076706 
L 73.832727 66.070588 
L 82.376268 95.887059 
L 90.919809 108.807529 
L 99.463349 100.856471 
L 108.00689 90.917647 
L 116.550431 77.997176 
L 125.093971 72.033882 
L 133.637512 81.972706 
L 142.181053 86.942118 
L 150.724593 79.984941 
L 159.268134 84.954353 
L 167.811675 79.984941 
L 176.355215 79.984941 
L 184.898756 87.936 
L 193.442297 97.874824 
L 201.985837 88.929882 
L 210.529378 71.04 
L 219.072919 74.021647 
L 227.616459 73.027765 
L 236.16 73.027765 
L 244.703541 74.021647 
L 253.247081 81.972706 
L 261.790622 77.997176 
L 270.334163 92.905412 
L 278.877703 103.838118 
L 287.421244 74.021647 
L 295.964785 73.027765 
L 304.508325 75.015529 
L 313.051866 75.015529 
L 321.595407 65.076706 
L 330.138947 72.033882 
L 338.682488 77.997176 
L 347.226029 93.899294 
L 355.769569 78.991059 
L 364.31311 95.887059 
L 372.856651 96.880941 
L 381.400191 108.807529 
L 389.943732 122.721882 
L 398.487273 107.813647 
L 398.487273 107.813647 
L 398.487273 107.813647 
L 389.943732 122.721882 
L 381.400191 108.807529 
L 372.856651 96.880941 
L 364.31311 95.887059 
L 355.769569 78.991059 
L 347.226029 93.899294 
L 338.682488 77.997176 
L 330.138947 72.033882 
L 321.595407 65.076706 
L 313.051866 75.015529 
L 304.508325 75.015529 
L 295.964785 71.04 
L 287.421244 72.033882 
L 278.877703 100.856471 
L 270.334163 90.917647 
L 261.790622 76.009412 
L 253.247081 79.984941 
L 244.703541 72.033882 
L 236.16 70.046118 
L 227.616459 71.04 
L 219.072919 71.04 
L 210.529378 69.052235 
L 201.985837 86.942118 
L 193.442297 94.893176 
L 184.898756 85.948235 
L 176.355215 77.997176 
L 167.811675 77.003294 
L 159.268134 80.978824 
L 150.724593 75.015529 
L 142.181053 82.966588 
L 133.637512 78.991059 
L 125.093971 70.046118 
L 116.550431 74.021647 
L 108.00689 87.936 
L 99.463349 96.880941 
L 90.919809 105.825882 
L 82.376268 93.899294 
L 73.832727 65.076706 
z
" clip-path="url(#p6341fa1222)" style="fill: #ff7f0e"/>
   </g>
   <g id="PolyCollection_23">
    <path d="M 73.832727 64.082824 
L 73.832727 65.076706 
L 82.376268 93.899294 
L 90.919809 105.825882 
L 99.463349 96.880941 
L 108.00689 87.936 
L 116.550431 74.021647 
L 125.093971 70.046118 
L 133.637512 78.991059 
L 142.181053 82.966588 
L 150.724593 75.015529 
L 159.268134 80.978824 
L 167.811675 77.003294 
L 176.355215 77.997176 
L 184.898756 85.948235 
L 193.442297 94.893176 
L 201.985837 86.942118 
L 210.529378 69.052235 
L 219.072919 71.04 
L 227.616459 71.04 
L 236.16 70.046118 
L 244.703541 72.033882 
L 253.247081 79.984941 
L 261.790622 76.009412 
L 270.334163 90.917647 
L 278.877703 100.856471 
L 287.421244 72.033882 
L 295.964785 71.04 
L 304.508325 75.015529 
L 313.051866 75.015529 
L 321.595407 65.076706 
L 330.138947 72.033882 
L 338.682488 77.997176 
L 347.226029 93.899294 
L 355.769569 78.991059 
L 364.31311 95.887059 
L 372.856651 96.880941 
L 381.400191 108.807529 
L 389.943732 122.721882 
L 398.487273 107.813647 
L 398.487273 107.813647 
L 398.487273 107.813647 
L 389.943732 122.721882 
L 381.400191 108.807529 
L 372.856651 93.899294 
L 364.31311 93.899294 
L 355.769569 77.003294 
L 347.226029 90.917647 
L 338.682488 76.009412 
L 330.138947 70.046118 
L 321.595407 63.088941 
L 313.051866 73.027765 
L 304.508325 73.027765 
L 295.964785 69.052235 
L 287.421244 69.052235 
L 278.877703 98.868706 
L 270.334163 88.929882 
L 261.790622 74.021647 
L 253.247081 77.997176 
L 244.703541 69.052235 
L 236.16 68.058353 
L 227.616459 69.052235 
L 219.072919 68.058353 
L 210.529378 67.064471 
L 201.985837 83.960471 
L 193.442297 92.905412 
L 184.898756 82.966588 
L 176.355215 76.009412 
L 167.811675 75.015529 
L 159.268134 77.997176 
L 150.724593 73.027765 
L 142.181053 80.978824 
L 133.637512 76.009412 
L 125.093971 68.058353 
L 116.550431 72.033882 
L 108.00689 85.948235 
L 99.463349 93.899294 
L 90.919809 102.844235 
L 82.376268 91.911529 
L 73.832727 64.082824 
z
" clip-path="url(#p6341fa1222)" style="fill: #2ca02c"/>
   </g>
   <g id="PolyCollection_24">
    <path d="M 73.832727 61.101176 
L 73.832727 64.082824 
L 82.376268 91.911529 
L 90.919809 102.844235 
L 99.463349 93.899294 
L 108.00689 85.948235 
L 116.550431 72.033882 
L 125.093971 68.058353 
L 133.637512 76.009412 
L 142.181053 80.978824 
L 150.724593 73.027765 
L 159.268134 77.997176 
L 167.811675 75.015529 
L 176.355215 76.009412 
L 184.898756 82.966588 
L 193.442297 92.905412 
L 201.985837 83.960471 
L 210.529378 67.064471 
L 219.072919 68.058353 
L 227.616459 69.052235 
L 236.16 68.058353 
L 244.703541 69.052235 
L 253.247081 77.997176 
L 261.790622 74.021647 
L 270.334163 88.929882 
L 278.877703 98.868706 
L 287.421244 69.052235 
L 295.964785 69.052235 
L 304.508325 73.027765 
L 313.051866 73.027765 
L 321.595407 63.088941 
L 330.138947 70.046118 
L 338.682488 76.009412 
L 347.226029 90.917647 
L 355.769569 77.003294 
L 364.31311 93.899294 
L 372.856651 93.899294 
L 381.400191 108.807529 
L 389.943732 122.721882 
L 398.487273 107.813647 
L 398.487273 90.917647 
L 398.487273 90.917647 
L 389.943732 100.856471 
L 381.400191 87.936 
L 372.856651 81.972706 
L 364.31311 76.009412 
L 355.769569 72.033882 
L 347.226029 70.046118 
L 338.682488 60.107294 
L 330.138947 61.101176 
L 321.595407 59.113412 
L 313.051866 60.107294 
L 304.508325 62.095059 
L 295.964785 59.113412 
L 287.421244 60.107294 
L 278.877703 61.101176 
L 270.334163 66.070588 
L 261.790622 67.064471 
L 253.247081 63.088941 
L 244.703541 60.107294 
L 236.16 61.101176 
L 227.616459 60.107294 
L 219.072919 63.088941 
L 210.529378 60.107294 
L 201.985837 63.088941 
L 193.442297 61.101176 
L 184.898756 59.113412 
L 176.355215 59.113412 
L 167.811675 62.095059 
L 159.268134 61.101176 
L 150.724593 59.113412 
L 142.181053 62.095059 
L 133.637512 64.082824 
L 125.093971 61.101176 
L 116.550431 61.101176 
L 108.00689 66.070588 
L 99.463349 65.076706 
L 90.919809 63.088941 
L 82.376268 63.088941 
L 73.832727 61.101176 
z
" clip-path="url(#p6341fa1222)" style="fill: #d62728"/>
   </g>
   <g id="PolyCollection_25">
    <path d="M 73.832727 60.107294 
L 73.832727 61.101176 
L 82.376268 63.088941 
L 90.919809 63.088941 
L 99.463349 65.076706 
L 108.00689 66.070588 
L 116.550431 61.101176 
L 125.093971 61.101176 
L 133.637512 64.082824 
L 142.181053 62.095059 
L 150.724593 59.113412 
L 159.268134 61.101176 
L 167.811675 62.095059 
L 176.355215 59.113412 
L 184.898756 59.113412 
L 193.442297 61.101176 
L 201.985837 63.088941 
L 210.529378 60.107294 
L 219.072919 63.088941 
L 227.616459 60.107294 
L 236.16 61.101176 
L 244.703541 60.107294 
L 253.247081 63.088941 
L 261.790622 67.064471 
L 270.334163 66.070588 
L 278.877703 61.101176 
L 287.421244 60.107294 
L 295.964785 59.113412 
L 304.508325 62.095059 
L 313.051866 60.107294 
L 321.595407 59.113412 
L 330.138947 61.101176 
L 338.682488 60.107294 
L 347.226029 70.046118 
L 355.769569 72.033882 
L 364.31311 76.009412 
L 372.856651 81.972706 
L 381.400191 87.936 
L 389.943732 100.856471 
L 398.487273 90.917647 
L 398.487273 90.917647 
L 398.487273 90.917647 
L 389.943732 100.856471 
L 381.400191 87.936 
L 372.856651 81.972706 
L 364.31311 76.009412 
L 355.769569 72.033882 
L 347.226029 70.046118 
L 338.682488 60.107294 
L 330.138947 61.101176 
L 321.595407 59.113412 
L 313.051866 60.107294 
L 304.508325 62.095059 
L 295.964785 59.113412 
L 287.421244 60.107294 
L 278.877703 61.101176 
L 270.334163 66.070588 
L 261.790622 67.064471 
L 253.247081 61.101176 
L 244.703541 58.119529 
L 236.16 58.119529 
L 227.616459 58.119529 
L 219.072919 61.101176 
L 210.529378 58.119529 
L 201.985837 61.101176 
L 193.442297 58.119529 
L 184.898756 57.125647 
L 176.355215 57.125647 
L 167.811675 59.113412 
L 159.268134 59.113412 
L 150.724593 57.125647 
L 142.181053 60.107294 
L 133.637512 61.101176 
L 125.093971 59.113412 
L 116.550431 58.119529 
L 108.00689 64.082824 
L 99.463349 62.095059 
L 90.919809 58.119529 
L 82.376268 59.113412 
L 73.832727 60.107294 
z
" clip-path="url(#p6341fa1222)" style="fill: #9467bd"/>
   </g>
   <g id="PolyCollection_26">
    <path d="M 73.832727 59.113412 
L 73.832727 60.107294 
L 82.376268 59.113412 
L 90.919809 58.119529 
L 99.463349 62.095059 
L 108.00689 64.082824 
L 116.550431 58.119529 
L 125.093971 59.113412 
L 133.637512 61.101176 
L 142.181053 60.107294 
L 150.724593 57.125647 
L 159.268134 59.113412 
L 167.811675 59.113412 
L 176.355215 57.125647 
L 184.898756 57.125647 
L 193.442297 58.119529 
L 201.985837 61.101176 
L 210.529378 58.119529 
L 219.072919 61.101176 
L 227.616459 58.119529 
L 236.16 58.119529 
L 244.703541 58.119529 
L 253.247081 61.101176 
L 261.790622 67.064471 
L 270.334163 66.070588 
L 278.877703 61.101176 
L 287.421244 60.107294 
L 295.964785 59.113412 
L 304.508325 62.095059 
L 313.051866 60.107294 
L 321.595407 59.113412 
L 330.138947 61.101176 
L 338.682488 60.107294 
L 347.226029 70.046118 
L 355.769569 72.033882 
L 364.31311 76.009412 
L 372.856651 81.972706 
L 381.400191 87.936 
L 389.943732 100.856471 
L 398.487273 90.917647 
L 398.487273 60.107294 
L 398.487273 60.107294 
L 389.943732 62.095059 
L 381.400191 63.088941 
L 372.856651 59.113412 
L 364.31311 62.095059 
L 355.769569 63.088941 
L 347.226029 61.101176 
L 338.682488 57.125647 
L 330.138947 59.113412 
L 321.595407 57.125647 
L 313.051866 57.125647 
L 304.508325 60.107294 
L 295.964785 56.131765 
L 287.421244 58.119529 
L 278.877703 58.119529 
L 270.334163 64.082824 
L 261.790622 64.082824 
L 253.247081 59.113412 
L 244.703541 55.137882 
L 236.16 56.131765 
L 227.616459 56.131765 
L 219.072919 58.119529 
L 210.529378 56.131765 
L 201.985837 58.119529 
L 193.442297 56.131765 
L 184.898756 54.144 
L 176.355215 55.137882 
L 167.811675 56.131765 
L 159.268134 56.131765 
L 150.724593 55.137882 
L 142.181053 57.125647 
L 133.637512 57.125647 
L 125.093971 56.131765 
L 116.550431 56.131765 
L 108.00689 62.095059 
L 99.463349 60.107294 
L 90.919809 55.137882 
L 82.376268 57.125647 
L 73.832727 59.113412 
z
" clip-path="url(#p6341fa1222)" style="fill: #8c564b"/>
   </g>
   <g id="matplotlib.axis_1">
    <g id="xtick_1">
     <g id="line2d_1">
      <defs>
       <path id="m05dbe9d5fe" d="M 0 0 
L 0 3.5 
" style="stroke: #000000; stroke-width: 0.8"/>
      </defs>
      <g>
       <use xlink:href="#m05dbe9d5fe" x="73.832727" y="307.584" style="stroke: #000000; stroke-width: 0.8"/>
      </g>
     </g>
     <g id="text_1">
      <!-- 0 -->
      <g transform="translate(70.651477 322.182437) scale(0.1 -0.1)">
       <defs>
        <path id="DejaVuSans-30" d="M 2034 4250 
Q 1547 4250 1301 3770 
Q 1056 3291 1056 2328 
Q 1056 1369 1301 889 
Q 1547 409 2034 409 
Q 2525 409 2770 889 
Q 3016 1369 3016 2328 
Q 3016 3291 2770 3770 
Q 2525 4250 2034 4250 
z
M 2034 4750 
Q 2819 4750 3233 4129 
Q 3647 3509 3647 2328 
Q 3647 1150 3233 529 
Q 2819 -91 2034 -91 
Q 1250 -91 836 529 
Q 422 1150 422 2328 
Q 422 3509 836 4129 
Q 1250 4750 2034 4750 
z
" transform="scale(0.015625)"/>
       </defs>
       <use xlink:href="#DejaVuSans-30"/>
      </g>
     </g>
    </g>
    <g id="xtick_2">
     <g id="line2d_2">
      <g>
       <use xlink:href="#m05dbe9d5fe" x="116.550431" y="307.584" style="stroke: #000000; stroke-width: 0.8"/>
      </g>
     </g>
     <g id="text_2">
      <!-- 5 -->
      <g transform="translate(113.369181 322.182437) scale(0.1 -0.1)">
       <defs>
        <path id="DejaVuSans-35" d="M 691 4666 
L 3169 4666 
L 3169 4134 
L 1269 4134 
L 1269 2991 
Q 1406 3038 1543 3061 
Q 1681 3084 1819 3084 
Q 2600 3084 3056 2656 
Q 3513 2228 3513 1497 
Q 3513 744 3044 326 
Q 2575 -91 1722 -91 
Q 1428 -91 1123 -41 
Q 819 9 494 109 
L 494 744 
Q 775 591 1075 516 
Q 1375 441 1709 441 
Q 2250 441 2565 725 
Q 2881 1009 2881 1497 
Q 2881 1984 2565 2268 
Q 2250 2553 1709 2553 
Q 1456 2553 1204 2497 
Q 953 2441 691 2322 
L 691 4666 
z
" transform="scale(0.015625)"/>
       </defs>
       <use xlink:href="#DejaVuSans-35"/>
      </g>
     </g>
    </g>
    <g id="xtick_3">
     <g id="line2d_3">
      <g>
       <use xlink:href="#m05dbe9d5fe" x="159.268134" y="307.584" style="stroke: #000000; stroke-width: 0.8"/>
      </g>
     </g>
     <g id="text_3">
      <!-- 10 -->
      <g transform="translate(152.905634 322.182437) scale(0.1 -0.1)">
       <defs>
        <path id="DejaVuSans-31" d="M 794 531 
L 1825 531 
L 1825 4091 
L 703 3866 
L 703 4441 
L 1819 4666 
L 2450 4666 
L 2450 531 
L 3481 531 
L 3481 0 
L 794 0 
L 794 531 
z
" transform="scale(0.015625)"/>
       </defs>
       <use xlink:href="#DejaVuSans-31"/>
       <use xlink:href="#DejaVuSans-30" x="63.623047"/>
      </g>
     </g>
    </g>
    <g id="xtick_4">
     <g id="line2d_4">
      <g>
       <use xlink:href="#m05dbe9d5fe" x="201.985837" y="307.584" style="stroke: #000000; stroke-width: 0.8"/>
      </g>
     </g>
     <g id="text_4">
      <!-- 15 -->
      <g transform="translate(195.623337 322.182437) scale(0.1 -0.1)">
       <use xlink:href="#DejaVuSans-31"/>
       <use xlink:href="#DejaVuSans-35" x="63.623047"/>
      </g>
     </g>
    </g>
    <g id="xtick_5">
     <g id="line2d_5">
      <g>
       <use xlink:href="#m05dbe9d5fe" x="244.703541" y="307.584" style="stroke: #000000; stroke-width: 0.8"/>
      </g>
     </g>
     <g id="text_5">
      <!-- 20 -->
      <g transform="translate(238.341041 322.182437) scale(0.1 -0.1)">
       <defs>
        <path id="DejaVuSans-32" d="M 1228 531 
L 3431 531 
L 3431 0 
L 469 0 
L 469 531 
Q 828 903 1448 1529 
Q 2069 2156 2228 2338 
Q 2531 2678 2651 2914 
Q 2772 3150 2772 3378 
Q 2772 3750 2511 3984 
Q 2250 4219 1831 4219 
Q 1534 4219 1204 4116 
Q 875 4013 500 3803 
L 500 4441 
Q 881 4594 1212 4672 
Q 1544 4750 1819 4750 
Q 2544 4750 2975 4387 
Q 3406 4025 3406 3419 
Q 3406 3131 3298 2873 
Q 3191 2616 2906 2266 
Q 2828 2175 2409 1742 
Q 1991 1309 1228 531 
z
" transform="scale(0.015625)"/>
       </defs>
       <use xlink:href="#DejaVuSans-32"/>
       <use xlink:href="#DejaVuSans-30" x="63.623047"/>
      </g>
     </g>
    </g>
    <g id="xtick_6">
     <g id="line2d_6">
      <g>
       <use xlink:href="#m05dbe9d5fe" x="287.421244" y="307.584" style="stroke: #000000; stroke-width: 0.8"/>
      </g>
     </g>
     <g id="text_6">
      <!-- 25 -->
      <g transform="translate(281.058744 322.182437) scale(0.1 -0.1)">
       <use xlink:href="#DejaVuSans-32"/>
       <use xlink:href="#DejaVuSans-35" x="63.623047"/>
      </g>
     </g>
    </g>
    <g id="xtick_7">
     <g id="line2d_7">
      <g>
       <use xlink:href="#m05dbe9d5fe" x="330.138947" y="307.584" style="stroke: #000000; stroke-width: 0.8"/>
      </g>
     </g>
     <g id="text_7">
      <!-- 30 -->
      <g transform="translate(323.776447 322.182437) scale(0.1 -0.1)">
       <defs>
        <path id="DejaVuSans-33" d="M 2597 2516 
Q 3050 2419 3304 2112 
Q 3559 1806 3559 1356 
Q 3559 666 3084 287 
Q 2609 -91 1734 -91 
Q 1441 -91 1130 -33 
Q 819 25 488 141 
L 488 750 
Q 750 597 1062 519 
Q 1375 441 1716 441 
Q 2309 441 2620 675 
Q 2931 909 2931 1356 
Q 2931 1769 2642 2001 
Q 2353 2234 1838 2234 
L 1294 2234 
L 1294 2753 
L 1863 2753 
Q 2328 2753 2575 2939 
Q 2822 3125 2822 3475 
Q 2822 3834 2567 4026 
Q 2313 4219 1838 4219 
Q 1578 4219 1281 4162 
Q 984 4106 628 3988 
L 628 4550 
Q 988 4650 1302 4700 
Q 1616 4750 1894 4750 
Q 2613 4750 3031 4423 
Q 3450 4097 3450 3541 
Q 3450 3153 3228 2886 
Q 3006 2619 2597 2516 
z
" transform="scale(0.015625)"/>
       </defs>
       <use xlink:href="#DejaVuSans-33"/>
       <use xlink:href="#DejaVuSans-30" x="63.623047"/>
      </g>
     </g>
    </g>
    <g id="xtick_8">
     <g id="line2d_8">
      <g>
       <use xlink:href="#m05dbe9d5fe" x="372.856651" y="307.584" style="stroke: #000000; stroke-width: 0.8"/>
      </g>
     </g>
     <g id="text_8">
      <!-- 35 -->
      <g transform="translate(366.494151 322.182437) scale(0.1 -0.1)">
       <use xlink:href="#DejaVuSans-33"/>
       <use xlink:href="#DejaVuSans-35" x="63.623047"/>
      </g>
     </g>
    </g>
    <g id="text_9">
     <!-- Generations -->
     <g transform="translate(205.662344 335.860562) scale(0.1 -0.1)">
      <defs>
       <path id="DejaVuSans-47" d="M 3809 666 
L 3809 1919 
L 2778 1919 
L 2778 2438 
L 4434 2438 
L 4434 434 
Q 4069 175 3628 42 
Q 3188 -91 2688 -91 
Q 1594 -91 976 548 
Q 359 1188 359 2328 
Q 359 3472 976 4111 
Q 1594 4750 2688 4750 
Q 3144 4750 3555 4637 
Q 3966 4525 4313 4306 
L 4313 3634 
Q 3963 3931 3569 4081 
Q 3175 4231 2741 4231 
Q 1884 4231 1454 3753 
Q 1025 3275 1025 2328 
Q 1025 1384 1454 906 
Q 1884 428 2741 428 
Q 3075 428 3337 486 
Q 3600 544 3809 666 
z
" transform="scale(0.015625)"/>
       <path id="DejaVuSans-65" d="M 3597 1894 
L 3597 1613 
L 953 1613 
Q 991 1019 1311 708 
Q 1631 397 2203 397 
Q 2534 397 2845 478 
Q 3156 559 3463 722 
L 3463 178 
Q 3153 47 2828 -22 
Q 2503 -91 2169 -91 
Q 1331 -91 842 396 
Q 353 884 353 1716 
Q 353 2575 817 3079 
Q 1281 3584 2069 3584 
Q 2775 3584 3186 3129 
Q 3597 2675 3597 1894 
z
M 3022 2063 
Q 3016 2534 2758 2815 
Q 2500 3097 2075 3097 
Q 1594 3097 1305 2825 
Q 1016 2553 972 2059 
L 3022 2063 
z
" transform="scale(0.015625)"/>
       <path id="DejaVuSans-6e" d="M 3513 2113 
L 3513 0 
L 2938 0 
L 2938 2094 
Q 2938 2591 2744 2837 
Q 2550 3084 2163 3084 
Q 1697 3084 1428 2787 
Q 1159 2491 1159 1978 
L 1159 0 
L 581 0 
L 581 3500 
L 1159 3500 
L 1159 2956 
Q 1366 3272 1645 3428 
Q 1925 3584 2291 3584 
Q 2894 3584 3203 3211 
Q 3513 2838 3513 2113 
z
" transform="scale(0.015625)"/>
       <path id="DejaVuSans-72" d="M 2631 2963 
Q 2534 3019 2420 3045 
Q 2306 3072 2169 3072 
Q 1681 3072 1420 2755 
Q 1159 2438 1159 1844 
L 1159 0 
L 581 0 
L 581 3500 
L 1159 3500 
L 1159 2956 
Q 1341 3275 1631 3429 
Q 1922 3584 2338 3584 
Q 2397 3584 2469 3576 
Q 2541 3569 2628 3553 
L 2631 2963 
z
" transform="scale(0.015625)"/>
       <path id="DejaVuSans-61" d="M 2194 1759 
Q 1497 1759 1228 1600 
Q 959 1441 959 1056 
Q 959 750 1161 570 
Q 1363 391 1709 391 
Q 2188 391 2477 730 
Q 2766 1069 2766 1631 
L 2766 1759 
L 2194 1759 
z
M 3341 1997 
L 3341 0 
L 2766 0 
L 2766 531 
Q 2569 213 2275 61 
Q 1981 -91 1556 -91 
Q 1019 -91 701 211 
Q 384 513 384 1019 
Q 384 1609 779 1909 
Q 1175 2209 1959 2209 
L 2766 2209 
L 2766 2266 
Q 2766 2663 2505 2880 
Q 2244 3097 1772 3097 
Q 1472 3097 1187 3025 
Q 903 2953 641 2809 
L 641 3341 
Q 956 3463 1253 3523 
Q 1550 3584 1831 3584 
Q 2591 3584 2966 3190 
Q 3341 2797 3341 1997 
z
" transform="scale(0.015625)"/>
       <path id="DejaVuSans-74" d="M 1172 4494 
L 1172 3500 
L 2356 3500 
L 2356 3053 
L 1172 3053 
L 1172 1153 
Q 1172 725 1289 603 
Q 1406 481 1766 481 
L 2356 481 
L 2356 0 
L 1766 0 
Q 1100 0 847 248 
Q 594 497 594 1153 
L 594 3053 
L 172 3053 
L 172 3500 
L 594 3500 
L 594 4494 
L 1172 4494 
z
" transform="scale(0.015625)"/>
       <path id="DejaVuSans-69" d="M 603 3500 
L 1178 3500 
L 1178 0 
L 603 0 
L 603 3500 
z
M 603 4863 
L 1178 4863 
L 1178 4134 
L 603 4134 
L 603 4863 
z
" transform="scale(0.015625)"/>
       <path id="DejaVuSans-6f" d="M 1959 3097 
Q 1497 3097 1228 2736 
Q 959 2375 959 1747 
Q 959 1119 1226 758 
Q 1494 397 1959 397 
Q 2419 397 2687 759 
Q 2956 1122 2956 1747 
Q 2956 2369 2687 2733 
Q 2419 3097 1959 3097 
z
M 1959 3584 
Q 2709 3584 3137 3096 
Q 3566 2609 3566 1747 
Q 3566 888 3137 398 
Q 2709 -91 1959 -91 
Q 1206 -91 779 398 
Q 353 888 353 1747 
Q 353 2609 779 3096 
Q 1206 3584 1959 3584 
z
" transform="scale(0.015625)"/>
       <path id="DejaVuSans-73" d="M 2834 3397 
L 2834 2853 
Q 2591 2978 2328 3040 
Q 2066 3103 1784 3103 
Q 1356 3103 1142 2972 
Q 928 2841 928 2578 
Q 928 2378 1081 2264 
Q 1234 2150 1697 2047 
L 1894 2003 
Q 2506 1872 2764 1633 
Q 3022 1394 3022 966 
Q 3022 478 2636 193 
Q 2250 -91 1575 -91 
Q 1294 -91 989 -36 
Q 684 19 347 128 
L 347 722 
Q 666 556 975 473 
Q 1284 391 1588 391 
Q 1994 391 2212 530 
Q 2431 669 2431 922 
Q 2431 1156 2273 1281 
Q 2116 1406 1581 1522 
L 1381 1569 
Q 847 1681 609 1914 
Q 372 2147 372 2553 
Q 372 3047 722 3315 
Q 1072 3584 1716 3584 
Q 2034 3584 2315 3537 
Q 2597 3491 2834 3397 
z
" transform="scale(0.015625)"/>
      </defs>
      <use xlink:href="#DejaVuSans-47"/>
      <use xlink:href="#DejaVuSans-65" x="77.490234"/>
      <use xlink:href="#DejaVuSans-6e" x="139.013672"/>
      <use xlink:href="#DejaVuSans-65" x="202.392578"/>
      <use xlink:href="#DejaVuSans-72" x="263.916016"/>
      <use xlink:href="#DejaVuSans-61" x="305.029297"/>
      <use xlink:href="#DejaVuSans-74" x="366.308594"/>
      <use xlink:href="#DejaVuSans-69" x="405.517578"/>
      <use xlink:href="#DejaVuSans-6f" x="433.300781"/>
      <use xlink:href="#DejaVuSans-6e" x="494.482422"/>
      <use xlink:href="#DejaVuSans-73" x="557.861328"/>
     </g>
    </g>
   </g>
   <g id="matplotlib.axis_2">
    <g id="ytick_1">
     <g id="line2d_9">
      <defs>
       <path id="m150d6ffe12" d="M 0 0 
L -3.5 0 
" style="stroke: #000000; stroke-width: 0.8"/>
      </defs>
      <g>
       <use xlink:href="#m150d6ffe12" x="57.6" y="307.584" style="stroke: #000000; stroke-width: 0.8"/>
      </g>
     </g>
     <g id="text_10">
      <!-- 0 -->
      <g transform="translate(44.2375 311.383219) scale(0.1 -0.1)">
       <use xlink:href="#DejaVuSans-30"/>
      </g>
     </g>
    </g>
    <g id="ytick_2">
     <g id="line2d_10">
      <g>
       <use xlink:href="#m150d6ffe12" x="57.6" y="257.889882" style="stroke: #000000; stroke-width: 0.8"/>
      </g>
     </g>
     <g id="text_11">
      <!-- 50 -->
      <g transform="translate(37.875 261.689101) scale(0.1 -0.1)">
       <use xlink:href="#DejaVuSans-35"/>
       <use xlink:href="#DejaVuSans-30" x="63.623047"/>
      </g>
     </g>
    </g>
    <g id="ytick_3">
     <g id="line2d_11">
      <g>
       <use xlink:href="#m150d6ffe12" x="57.6" y="208.195765" style="stroke: #000000; stroke-width: 0.8"/>
      </g>
     </g>
     <g id="text_12">
      <!-- 100 -->
      <g transform="translate(31.5125 211.994983) scale(0.1 -0.1)">
       <use xlink:href="#DejaVuSans-31"/>
       <use xlink:href="#DejaVuSans-30" x="63.623047"/>
       <use xlink:href="#DejaVuSans-30" x="127.246094"/>
      </g>
     </g>
    </g>
    <g id="ytick_4">
     <g id="line2d_12">
      <g>
       <use xlink:href="#m150d6ffe12" x="57.6" y="158.501647" style="stroke: #000000; stroke-width: 0.8"/>
      </g>
     </g>
     <g id="text_13">
      <!-- 150 -->
      <g transform="translate(31.5125 162.300866) scale(0.1 -0.1)">
       <use xlink:href="#DejaVuSans-31"/>
       <use xlink:href="#DejaVuSans-35" x="63.623047"/>
       <use xlink:href="#DejaVuSans-30" x="127.246094"/>
      </g>
     </g>
    </g>
    <g id="ytick_5">
     <g id="line2d_13">
      <g>
       <use xlink:href="#m150d6ffe12" x="57.6" y="108.807529" style="stroke: #000000; stroke-width: 0.8"/>
      </g>
     </g>
     <g id="text_14">
      <!-- 200 -->
      <g transform="translate(31.5125 112.606748) scale(0.1 -0.1)">
       <use xlink:href="#DejaVuSans-32"/>
       <use xlink:href="#DejaVuSans-30" x="63.623047"/>
       <use xlink:href="#DejaVuSans-30" x="127.246094"/>
      </g>
     </g>
    </g>
    <g id="ytick_6">
     <g id="line2d_14">
      <g>
       <use xlink:href="#m150d6ffe12" x="57.6" y="59.113412" style="stroke: #000000; stroke-width: 0.8"/>
      </g>
     </g>
     <g id="text_15">
      <!-- 250 -->
      <g transform="translate(31.5125 62.912631) scale(0.1 -0.1)">
       <use xlink:href="#DejaVuSans-32"/>
       <use xlink:href="#DejaVuSans-35" x="63.623047"/>
       <use xlink:href="#DejaVuSans-30" x="127.246094"/>
      </g>
     </g>
    </g>
    <g id="text_16">
     <!-- Size per Species -->
     <g transform="translate(25.432812 215.520969) rotate(-90) scale(0.1 -0.1)">
      <defs>
       <path id="DejaVuSans-53" d="M 3425 4513 
L 3425 3897 
Q 3066 4069 2747 4153 
Q 2428 4238 2131 4238 
Q 1616 4238 1336 4038 
Q 1056 3838 1056 3469 
Q 1056 3159 1242 3001 
Q 1428 2844 1947 2747 
L 2328 2669 
Q 3034 2534 3370 2195 
Q 3706 1856 3706 1288 
Q 3706 609 3251 259 
Q 2797 -91 1919 -91 
Q 1588 -91 1214 -16 
Q 841 59 441 206 
L 441 856 
Q 825 641 1194 531 
Q 1563 422 1919 422 
Q 2459 422 2753 634 
Q 3047 847 3047 1241 
Q 3047 1584 2836 1778 
Q 2625 1972 2144 2069 
L 1759 2144 
Q 1053 2284 737 2584 
Q 422 2884 422 3419 
Q 422 4038 858 4394 
Q 1294 4750 2059 4750 
Q 2388 4750 2728 4690 
Q 3069 4631 3425 4513 
z
" transform="scale(0.015625)"/>
       <path id="DejaVuSans-7a" d="M 353 3500 
L 3084 3500 
L 3084 2975 
L 922 459 
L 3084 459 
L 3084 0 
L 275 0 
L 275 525 
L 2438 3041 
L 353 3041 
L 353 3500 
z
" transform="scale(0.015625)"/>
       <path id="DejaVuSans-20" transform="scale(0.015625)"/>
       <path id="DejaVuSans-70" d="M 1159 525 
L 1159 -1331 
L 581 -1331 
L 581 3500 
L 1159 3500 
L 1159 2969 
Q 1341 3281 1617 3432 
Q 1894 3584 2278 3584 
Q 2916 3584 3314 3078 
Q 3713 2572 3713 1747 
Q 3713 922 3314 415 
Q 2916 -91 2278 -91 
Q 1894 -91 1617 61 
Q 1341 213 1159 525 
z
M 3116 1747 
Q 3116 2381 2855 2742 
Q 2594 3103 2138 3103 
Q 1681 3103 1420 2742 
Q 1159 2381 1159 1747 
Q 1159 1113 1420 752 
Q 1681 391 2138 391 
Q 2594 391 2855 752 
Q 3116 1113 3116 1747 
z
" transform="scale(0.015625)"/>
       <path id="DejaVuSans-63" d="M 3122 3366 
L 3122 2828 
Q 2878 2963 2633 3030 
Q 2388 3097 2138 3097 
Q 1578 3097 1268 2742 
Q 959 2388 959 1747 
Q 959 1106 1268 751 
Q 1578 397 2138 397 
Q 2388 397 2633 464 
Q 2878 531 3122 666 
L 3122 134 
Q 2881 22 2623 -34 
Q 2366 -91 2075 -91 
Q 1284 -91 818 406 
Q 353 903 353 1747 
Q 353 2603 823 3093 
Q 1294 3584 2113 3584 
Q 2378 3584 2631 3529 
Q 2884 3475 3122 3366 
z
" transform="scale(0.015625)"/>
      </defs>
      <use xlink:href="#DejaVuSans-53"/>
      <use xlink:href="#DejaVuSans-69" x="63.476562"/>
      <use xlink:href="#DejaVuSans-7a" x="91.259766"/>
      <use xlink:href="#DejaVuSans-65" x="143.75"/>
      <use xlink:href="#DejaVuSans-20" x="205.273438"/>
      <use xlink:href="#DejaVuSans-70" x="237.060547"/>
      <use xlink:href="#DejaVuSans-65" x="300.537109"/>
      <use xlink:href="#DejaVuSans-72" x="362.060547"/>
      <use xlink:href="#DejaVuSans-20" x="403.173828"/>
      <use xlink:href="#DejaVuSans-53" x="434.960938"/>
      <use xlink:href="#DejaVuSans-70" x="498.4375"/>
      <use xlink:href="#DejaVuSans-65" x="561.914062"/>
      <use xlink:href="#DejaVuSans-63" x="623.4375"/>
      <use xlink:href="#DejaVuSans-69" x="678.417969"/>
      <use xlink:href="#DejaVuSans-65" x="706.201172"/>
      <use xlink:href="#DejaVuSans-73" x="767.724609"/>
     </g>
    </g>
   </g>
   <g id="patch_3">
    <path d="M 57.6 307.584 
L 57.6 41.472 
" style="fill: none; stroke: #000000; stroke-width: 0.8; stroke-linejoin: miter; stroke-linecap: square"/>
   </g>
   <g id="patch_4">
    <path d="M 414.72 307.584 
L 414.72 41.472 
" style="fill: none; stroke: #000000; stroke-width: 0.8; stroke-linejoin: miter; stroke-linecap: square"/>
   </g>
   <g id="patch_5">
    <path d="M 57.6 307.584 
L 414.72 307.584 
" style="fill: none; stroke: #000000; stroke-width: 0.8; stroke-linejoin: miter; stroke-linecap: square"/>
   </g>
   <g id="patch_6">
    <path d="M 57.6 41.472 
L 414.72 41.472 
" style="fill: none; stroke: #000000; stroke-width: 0.8; stroke-linejoin: miter; stroke-linecap: square"/>
   </g>
   <g id="text_17">
    <!-- Speciation -->
    <g transform="translate(204.714375 35.472) scale(0.12 -0.12)">
     <use xlink:href="#DejaVuSans-53"/>
     <use xlink:href="#DejaVuSans-70" x="63.476562"/>
     <use xlink:href="#DejaVuSans-65" x="126.953125"/>
     <use xlink:href="#DejaVuSans-63" x="188.476562"/>
     <use xlink:href="#DejaVuSans-69" x="243.457031"/>
     <use xlink:href="#DejaVuSans-61" x="271.240234"/>
     <use xlink:href="#DejaVuSans-74" x="332.519531"/>
     <use xlink:href="#DejaVuSans-69" x="371.728516"/>
     <use xlink:href="#DejaVuSans-6f" x="399.511719"/>
     <use xlink:href="#DejaVuSans-6e" x="460.693359"/>
    </g>
   </g>
  </g>
 </g>
 <defs>
  <clipPath id="p6341fa1222">
   <rect x="57.6" y="41.472" width="357.12" height="266.112"/>
  </clipPath>
 </defs>
</svg>
