<?xml version="1.0" encoding="UTF-8" standalone="no"?>
<!DOCTYPE svg PUBLIC "-//W3C//DTD SVG 1.1//EN"
 "http://www.w3.org/Graphics/SVG/1.1/DTD/svg11.dtd">
<!-- Generated by graphviz version 2.43.0 (0)
 -->
<!-- Title: %3 Pages: 1 -->
<svg width="201pt" height="133pt"
 viewBox="0.00 0.00 200.50 132.71" xmlns="http://www.w3.org/2000/svg" xmlns:xlink="http://www.w3.org/1999/xlink">
<g id="graph0" class="graph" transform="scale(1 1) rotate(0) translate(4 128.71)">
<title>%3</title>
<polygon fill="white" stroke="transparent" points="-4,4 -4,-128.71 196.5,-128.71 196.5,4 -4,4"/>
<!-- x -->
<g id="node1" class="node">
<title>x</title>
<polygon fill="lightgray" stroke="black" points="22,-124.71 0,-124.71 0,-106.71 22,-106.71 22,-124.71"/>
<text text-anchor="middle" x="11" y="-113.51" font-family="Times,serif" font-size="9.00">x</text>
</g>
<!-- control -->
<g id="node5" class="node">
<title>control</title>
<ellipse fill="lightblue" stroke="black" cx="80" cy="-35.36" rx="35.21" ry="35.21"/>
<text text-anchor="middle" x="80" y="-33.16" font-family="Times,serif" font-size="9.00">control</text>
</g>
<!-- x&#45;&gt;control -->
<g id="edge4" class="edge">
<title>x&#45;&gt;control</title>
<path fill="none" stroke="green" stroke-width="0.17" d="M18.12,-106.62C25.72,-97.99 38.27,-83.75 50.08,-70.33"/>
<polygon fill="green" stroke="green" stroke-width="0.17" points="52.93,-72.39 56.91,-62.58 47.67,-67.77 52.93,-72.39"/>
</g>
<!-- dx -->
<g id="node2" class="node">
<title>dx</title>
<polygon fill="lightgray" stroke="black" points="68,-124.71 40,-124.71 40,-106.71 68,-106.71 68,-124.71"/>
<text text-anchor="middle" x="54" y="-113.51" font-family="Times,serif" font-size="9.00">dx</text>
</g>
<!-- dx&#45;&gt;control -->
<g id="edge3" class="edge">
<title>dx&#45;&gt;control</title>
<path fill="none" stroke="green" stroke-width="0.22" d="M56.68,-106.62C58.93,-99.85 62.32,-89.64 65.83,-79.07"/>
<polygon fill="green" stroke="green" stroke-width="0.22" points="69.22,-79.96 69.05,-69.36 62.58,-77.75 69.22,-79.96"/>
</g>
<!-- theta -->
<g id="node3" class="node">
<title>theta</title>
<polygon fill="lightgray" stroke="black" points="127.5,-124.71 86.5,-124.71 86.5,-106.71 127.5,-106.71 127.5,-124.71"/>
<text text-anchor="middle" x="107" y="-113.51" font-family="Times,serif" font-size="9.00">theta</text>
</g>
<!-- theta&#45;&gt;control -->
<g id="edge1" class="edge">
<title>theta&#45;&gt;control</title>
<path fill="none" stroke="green" stroke-width="0.42" d="M104.21,-106.62C101.84,-99.73 98.22,-89.24 94.51,-78.47"/>
<polygon fill="green" stroke="green" stroke-width="0.42" points="97.82,-77.31 91.25,-69 91.2,-79.59 97.82,-77.31"/>
</g>
<!-- dtheta -->
<g id="node4" class="node">
<title>dtheta</title>
<polygon fill="lightgray" stroke="black" points="192.5,-124.71 145.5,-124.71 145.5,-106.71 192.5,-106.71 192.5,-124.71"/>
<text text-anchor="middle" x="169" y="-113.51" font-family="Times,serif" font-size="9.00">dtheta</text>
</g>
<!-- dtheta&#45;&gt;control -->
<g id="edge2" class="edge">
<title>dtheta&#45;&gt;control</title>
<path fill="none" stroke="green" stroke-width="0.49" d="M159.81,-106.62C149.05,-97.14 130.59,-80.9 114.14,-66.41"/>
<polygon fill="green" stroke="green" stroke-width="0.49" points="116.08,-63.46 106.26,-59.48 111.46,-68.71 116.08,-63.46"/>
</g>
</g>
</svg>
